<svg width="300" height="300" viewBox="0 0 300 300" fill="none" xmlns="http://www.w3.org/2000/svg">
    <path d="M150 0C67.2 0 0 67.2 0 150C0 232.8 67.2 300 150 300C232.8 300 300 232.8 300 150C300 67.2 232.8 0 150 0ZM150 270C84 270 30 216 30 150C30 84 84 30 150 30C216 30 270 84 270 150C270 216 216 270 150 270Z" fill="currentColor"/>
    <path d="M150 60C100.8 60 60 100.8 60 150C60 199.2 100.8 240 150 240C199.2 240 240 199.2 240 150C240 100.8 199.2 60 150 60ZM150 210C117 210 90 183 90 150C90 117 117 90 150 90C183 90 210 117 210 150C210 183 183 210 150 210Z" fill="currentColor"/>
    <circle cx="150" cy="150" r="45" fill="currentColor"/>
</svg>