<svg version="1.1" id="Layer_1" xmlns="http://www.w3.org/2000/svg" xmlns:xlink="http://www.w3.org/1999/xlink" x="0px" y="0px"
	 width="100%" viewBox="0 0 1024 1024" enable-background="new 0 0 1024 1024" xml:space="preserve">
<path fill="#000000" opacity="1.000000" stroke="none" 
	d="
M718.052734,206.873749 
	C729.690979,214.005554 742.282837,217.738281 754.794861,221.755707 
	C767.254333,225.756287 769.768433,234.174255 762.070923,244.656860 
	C749.440186,261.857391 736.046814,278.434998 721.606750,294.149475 
	C719.790833,296.125702 719.416687,297.810516 720.305054,300.373688 
	C725.961548,316.696014 723.694641,331.848358 713.135620,345.633179 
	C707.432007,353.079346 702.769348,361.141418 698.960876,369.690369 
	C693.017700,383.030823 685.202637,395.152435 675.681519,406.210876 
	C673.896240,408.284302 672.169373,410.480988 671.001770,413.919922 
	C684.666992,409.512543 697.608521,405.351044 710.541809,401.164124 
	C726.220276,396.088409 741.884583,390.968964 757.568542,385.910339 
	C770.031067,381.890747 781.500366,388.635651 784.413452,401.547699 
	C789.067749,422.178345 791.096680,442.819336 786.579529,463.836365 
	C781.100281,489.329773 767.363403,509.208313 746.763611,524.706970 
	C745.078003,525.975098 743.097656,526.934998 741.855042,529.205872 
	C746.993042,531.372070 752.058655,533.366760 756.996582,535.638794 
	C760.313538,537.165039 763.597412,538.860596 766.638916,540.869629 
	C775.114929,546.468506 775.439636,555.860291 767.368896,561.982605 
	C747.325317,577.187195 726.817810,591.752808 706.153442,606.097717 
	C690.960327,616.644531 675.385803,626.611450 659.887756,636.701050 
	C640.881714,649.074463 620.005371,655.587952 597.684814,658.164246 
	C574.810608,660.804382 552.172363,658.078674 529.536011,655.264221 
	C528.222412,655.100952 526.857544,654.865295 525.660583,654.336975 
	C521.515137,652.507263 518.385559,653.673950 515.568542,657.041016 
	C514.208008,658.667236 512.357056,659.959656 510.545654,661.117615 
	C505.663635,664.238464 502.133667,663.739502 498.105133,659.509583 
	C497.073792,658.426636 495.898529,657.345642 495.273285,656.033203 
	C491.415283,647.934875 484.604767,647.934875 477.060608,648.732117 
	C454.078522,651.160583 432.090424,648.600647 412.881775,634.277893 
	C404.164032,627.777527 396.820251,619.754272 389.458740,611.817139 
	C374.039642,595.192383 359.589905,577.738464 345.689423,559.829346 
	C339.604919,551.990112 340.306702,545.396240 347.872070,539.019775 
	C353.931732,533.912354 360.877838,530.377197 368.203369,527.476990 
	C370.116028,526.719727 372.524872,526.542908 373.446228,524.100342 
	C372.914703,521.773315 370.858887,521.215881 369.139893,520.305908 
	C358.157013,514.491943 346.695343,515.224182 335.068207,517.746155 
	C329.059174,519.049500 323.015015,520.199890 316.963928,521.293091 
	C315.535065,521.551270 314.466797,522.138306 313.607269,523.208313 
	C301.231598,538.614624 273.069122,539.846619 256.518188,521.383118 
	C242.173340,505.380707 239.999069,488.860931 250.485260,470.120087 
	C251.661606,468.017761 251.739578,466.182159 251.123657,463.962006 
	C248.113754,453.112549 250.401611,443.172394 256.822876,434.153473 
	C258.397705,431.941559 258.836639,429.762878 258.823944,427.181732 
	C258.712769,404.563263 274.307983,385.879517 296.348724,382.125641 
	C297.004791,382.013855 297.664734,381.911926 298.327087,381.852386 
	C308.821869,380.909698 308.780518,380.846191 317.270355,375.444031 
	C328.211151,368.482208 339.597961,368.539948 351.072998,373.910156 
	C353.867859,375.218109 356.118561,375.444519 359.031860,374.140808 
	C368.483429,369.911102 377.562683,371.709900 386.299072,376.570892 
	C387.289581,377.122040 388.214020,377.957733 389.890320,377.609253 
	C392.104614,371.809387 391.940552,365.436218 392.624573,359.250732 
	C394.140778,345.540070 394.488007,331.647339 396.843445,318.095062 
	C400.116241,299.264740 409.789215,283.924530 426.350037,273.705353 
	C430.350494,271.236816 430.865662,268.781586 429.364899,264.761505 
	C426.163483,256.185669 423.239899,247.505844 420.225128,238.860733 
	C418.192261,233.031311 418.951721,229.852158 422.745056,228.070297 
	C427.486633,225.843048 431.930878,227.558426 434.597717,232.948624 
	C438.750275,241.341736 441.116241,250.407089 444.020721,259.255524 
	C445.453583,263.620636 447.674438,265.362366 452.418091,264.690277 
	C474.240692,261.598785 492.430878,269.170319 507.426941,284.674469 
	C519.467957,297.123413 530.695190,310.340271 543.148926,322.420898 
	C557.856323,336.687714 573.412109,350.075226 587.400513,365.087372 
	C587.942017,365.668518 588.727539,366.022308 589.337891,366.439941 
	C591.780640,365.583984 592.069458,363.401947 592.726135,361.619598 
	C597.801147,347.844788 603.367493,334.325867 611.385803,321.918610 
	C615.310791,315.845184 617.272583,308.886383 619.234619,301.998199 
	C624.820190,282.388916 638.536316,271.869415 657.778931,267.871490 
	C661.847534,267.026154 663.750854,265.384186 664.723206,261.452301 
	C669.315735,242.881058 674.331360,224.439575 673.797424,204.998749 
	C673.540405,195.639038 681.669983,190.350555 690.798157,193.578720 
	C700.249573,196.921219 708.755005,202.308380 718.052734,206.873749 
M616.880188,575.394043 
	C611.283325,577.969238 605.650146,580.468689 600.096008,583.132812 
	C577.784790,593.834778 557.887207,607.839233 541.281311,626.319824 
	C539.342163,628.477905 537.368103,630.747742 538.718628,633.859619 
	C540.087219,637.013306 543.070435,637.781738 546.195557,637.868103 
	C550.191284,637.978577 554.190796,637.952393 558.188721,637.980408 
	C562.495972,638.010620 566.748718,638.392639 570.955444,636.557739 
	C578.545288,633.247192 586.373779,632.522217 594.224487,635.887085 
	C599.960449,638.345459 605.912170,638.141602 611.925354,637.470154 
	C614.237244,637.211975 616.652161,636.605652 618.870667,636.999695 
	C629.137756,638.823059 638.121948,635.225037 646.277649,629.929871 
	C682.458984,606.439209 720.652161,585.688843 750.807678,553.876038 
	C754.699585,549.770264 754.881226,548.524841 749.894409,546.040649 
	C748.555664,545.373718 747.169678,544.784058 745.764465,544.270935 
	C715.288452,533.142212 683.931458,525.829590 651.588196,523.098450 
	C621.203125,520.532776 591.716980,524.623535 563.810913,537.181213 
	C534.943054,550.171753 514.537537,570.823120 507.368927,602.698975 
	C507.104156,603.876099 507.323364,605.489868 505.157227,605.716492 
	C504.984222,604.751465 504.787384,603.805359 504.647552,602.850891 
	C501.594391,582.011780 492.121185,564.745483 475.724915,551.459473 
	C452.873840,532.943054 426.722778,527.957764 398.176270,532.703857 
	C388.766266,534.268372 379.533203,536.408813 370.861847,540.363953 
	C360.673065,545.011169 358.515411,555.101074 365.514099,563.623901 
	C369.211945,568.127014 372.862488,572.671570 376.432526,577.276428 
	C381.254761,583.496399 386.464081,589.063049 393.605652,592.936829 
	C400.748871,596.811584 407.247131,601.861633 414.132477,606.232056 
	C416.925323,608.004883 419.836243,610.001892 422.967773,610.752563 
	C431.624573,612.827820 439.226074,617.647400 447.815552,619.800110 
	C449.351379,620.184998 450.205139,621.378845 451.084320,622.677490 
	C455.522491,629.233459 464.279968,629.879395 470.070740,624.447266 
	C473.607239,621.129822 474.058167,618.001221 471.269836,613.965881 
	C466.806427,607.506409 462.097839,601.231445 456.608948,595.650696 
	C449.182678,588.100220 441.981445,580.408203 431.180695,577.002869 
	C427.084381,575.711365 423.604767,571.538879 419.660828,566.775024 
	C429.169067,567.930237 436.491333,570.957642 443.525055,574.581177 
	C469.409546,587.915710 486.867889,609.417786 500.736389,634.290649 
	C504.506683,641.052551 505.017792,641.193542 510.358368,635.280334 
	C527.292358,616.530518 545.718750,599.511292 567.404541,586.307434 
	C589.971741,572.566956 613.984009,563.449158 640.865051,563.749634 
	C642.148926,563.763977 643.818542,563.066528 645.013672,565.376282 
	C635.343323,567.708679 626.634644,571.850708 616.880188,575.394043 
M502.235779,562.281738 
	C506.604553,569.031921 507.423462,569.029724 512.090881,562.408325 
	C515.655518,557.351379 519.861511,552.840820 524.320862,548.582092 
	C542.309814,531.402588 564.274353,521.911194 587.964355,515.749146 
	C592.212585,514.644165 597.040527,514.739502 599.870605,510.362549 
	C600.468872,509.437347 601.612427,509.398682 602.597961,509.834503 
	C607.420532,511.967194 612.470520,510.561401 617.405884,510.902435 
	C622.006409,511.220276 624.608765,509.249542 625.901672,505.042328 
	C626.536560,502.976166 627.405640,500.970764 627.900146,498.874481 
	C631.009216,485.694427 630.868713,472.470856 628.131836,459.257721 
	C624.783813,443.094360 618.644104,428.079468 609.421875,414.356232 
	C607.078308,410.868958 604.613770,409.098267 601.419800,413.552612 
	C600.303040,415.109955 598.447144,415.628937 596.705933,416.215118 
	C589.927979,418.496857 589.926880,418.493652 589.037476,424.913025 
	C588.440308,424.403625 587.848572,424.083130 587.515808,423.588409 
	C573.326843,402.493927 556.745361,383.448944 538.549988,365.725403 
	C523.866516,351.422668 510.238739,336.127594 496.881897,320.574005 
	C489.252716,311.690125 479.571045,305.870148 467.543671,305.346893 
	C445.262390,304.377502 427.103516,322.158630 426.196228,345.211823 
	C425.718567,357.348907 425.000793,369.488281 423.955750,381.588989 
	C421.337311,411.909302 417.989624,442.107117 418.815277,472.711731 
	C419.208740,487.295349 423.609100,500.375580 427.143951,513.958130 
	C428.112122,517.678345 430.400757,519.146851 434.201874,519.754150 
	C462.560974,524.285278 485.241241,538.124573 502.235779,562.281738 
M696.613098,419.172302 
	C678.040405,425.010803 659.485779,430.908203 640.880554,436.641052 
	C636.880371,437.873657 635.258850,439.270844 636.827454,443.997101 
	C643.151184,463.050323 643.955078,482.435028 639.089050,502.005035 
	C638.513367,504.320526 637.006714,506.576141 637.979187,509.369415 
	C638.779053,509.535553 639.566406,509.814606 640.364075,509.848022 
	C667.772766,510.998016 694.493286,516.273621 720.908691,523.329895 
	C723.596008,524.047852 725.715698,523.322632 727.977417,522.016113 
	C746.550415,511.287262 761.241455,497.290070 768.121521,476.212097 
	C770.641541,468.491791 774.476318,461.233582 774.833801,452.852661 
	C775.223816,443.708313 775.466125,434.581268 774.814270,425.442383 
	C774.367310,419.177185 772.553223,413.343689 769.285156,408.005676 
	C765.006714,401.017273 761.919312,399.485016 753.896423,401.407745 
	C747.142883,403.026245 740.518311,405.245575 733.928894,407.471954 
	C721.828125,411.560455 709.681335,415.487518 696.613098,419.172302 
M358.844482,390.113220 
	C356.971924,393.504761 354.953735,392.022827 352.828461,390.359497 
	C346.368805,385.303772 339.121735,383.822235 331.223877,385.976288 
	C324.684052,387.759918 323.329956,390.824768 326.118164,396.934906 
	C328.076538,401.226440 329.603607,405.607880 329.434448,411.973419 
	C323.946655,406.407990 319.302826,402.177948 313.909302,398.904144 
	C306.566650,394.447296 299.045349,393.562775 291.101501,397.365753 
	C285.063934,400.256134 280.407379,404.647949 276.665375,410.059296 
	C268.583496,421.746552 270.477966,437.796906 280.952881,447.326752 
	C281.748779,448.050873 283.091583,448.438324 282.798004,450.230713 
	C278.306183,452.331116 273.819153,450.979706 269.385193,449.719971 
	C267.003967,449.043396 265.203796,449.223511 263.902985,451.609833 
	C260.897339,457.123596 264.292328,465.262909 270.281647,467.089172 
	C275.203766,468.590027 279.340027,471.143158 281.819794,476.521484 
	C267.798370,476.207977 261.326874,480.271759 258.837250,490.315613 
	C258.383362,492.146851 257.854889,494.185638 259.286285,495.549042 
	C264.002350,500.040924 269.048035,505.221436 275.947754,504.283295 
	C283.749756,503.222473 288.544617,506.122040 292.886230,511.965302 
	C296.420197,516.721619 302.931061,515.598450 305.323608,510.124664 
	C306.046265,508.471344 306.663696,506.618835 306.691986,504.847412 
	C306.749176,501.267151 308.248596,499.617462 311.789612,498.715790 
	C320.163422,496.583435 324.646942,490.209900 327.484985,482.603363 
	C328.732208,479.260559 327.699890,476.431335 323.507385,476.492004 
	C315.193756,476.612396 309.223358,471.540009 302.827179,467.443329 
	C301.192535,466.396393 300.084473,464.651428 300.810944,462.398438 
	C315.710205,464.790710 330.104980,465.684509 341.336609,453.366272 
	C352.467407,441.158569 350.840088,426.993713 345.729156,411.997345 
	C349.770508,412.824799 351.907959,414.306580 353.883789,416.086853 
	C358.895691,420.602905 361.758026,426.311157 363.158508,432.833893 
	C363.577057,434.783386 363.871094,436.820618 366.208557,437.572357 
	C372.132416,439.477509 384.011505,432.250641 384.869080,426.074707 
	C385.875031,418.829956 386.864716,411.575073 387.525909,404.294067 
	C387.805511,401.214905 388.670776,397.890991 387.070007,394.951080 
	C381.310394,384.373322 364.826324,382.063171 358.844482,390.113220 
M671.575073,294.986908 
	C675.624512,299.528687 675.510315,303.470947 671.138794,305.504456 
	C669.024353,306.488007 666.692871,307.083771 664.326599,306.700256 
	C660.761230,306.122406 657.769287,307.329895 654.985840,309.351685 
	C651.214050,312.091370 647.457703,314.823975 644.165222,318.183868 
	C638.832947,323.625305 634.282166,329.829102 627.640503,334.002838 
	C624.078003,336.241638 622.582092,339.965668 623.143372,344.432404 
	C624.294678,353.595154 622.862976,355.813721 613.959595,357.610809 
	C609.633545,358.484009 607.646912,360.876526 607.061035,364.909882 
	C606.553040,368.407349 605.527649,371.758514 603.926453,374.882080 
	C602.103577,378.438171 602.646057,381.499176 604.998169,384.619202 
	C612.030884,393.947906 617.611511,404.206207 623.719727,414.129303 
	C626.277039,418.283813 626.763611,425.198120 631.515808,426.088470 
	C635.828369,426.896454 640.914795,423.550140 645.665405,422.052429 
	C649.655823,420.794312 653.343445,419.413483 655.592712,415.279907 
	C665.098083,397.811432 676.885803,381.676971 684.448303,363.019257 
	C687.747437,354.879639 690.934631,348.204498 683.476990,340.995728 
	C681.550110,339.133148 681.627441,336.748596 685.052368,335.792023 
	C687.110657,335.217102 688.925537,333.895844 691.215576,333.963013 
	C692.822144,334.010162 693.996521,333.199738 694.835388,331.741486 
	C700.399841,322.068634 703.331665,311.521240 705.124146,300.618469 
	C705.353210,299.224884 705.068665,297.495880 704.408142,296.246887 
	C699.330505,286.645691 686.786987,277.037933 673.075989,282.975433 
	C665.894653,286.085297 665.223145,289.582336 671.575073,294.986908 
M354.447113,465.065735 
	C354.644409,465.333710 354.866791,465.586914 355.035065,465.872009 
	C356.578888,468.487579 360.270721,471.494080 357.976593,474.051575 
	C355.232239,477.110992 352.611115,472.680450 349.921417,471.528412 
	C347.546783,470.511383 345.466431,466.625458 342.635040,469.534760 
	C340.003265,472.238831 341.106750,476.119568 341.960632,479.472504 
	C342.203430,480.425781 343.494659,481.149811 344.375610,481.895660 
	C347.040710,484.152161 349.798584,486.302490 352.405487,488.623169 
	C354.048248,490.085541 355.584808,491.523254 353.183075,493.945343 
	C351.275421,495.869293 352.941254,497.301178 354.827576,498.023499 
	C362.603668,501.001160 370.632629,501.942474 378.843170,500.435211 
	C383.124420,499.649292 385.023621,496.819763 384.625824,492.494019 
	C383.530579,480.585144 382.524780,468.672729 382.588928,456.696533 
	C382.596802,455.230560 382.589203,453.572113 380.301819,453.597870 
	C378.498291,455.216736 379.910461,456.987793 380.087921,458.667358 
	C380.338654,461.041199 380.553436,463.415955 378.272217,464.992188 
	C375.994690,466.565857 373.787872,465.551056 371.687378,464.483704 
	C368.162567,462.692566 365.924408,459.549866 363.500214,456.586365 
	C362.076935,454.846375 361.276428,452.446564 358.836121,451.708282 
	C352.765808,457.077850 351.595581,460.218719 354.447113,465.065735 
M396.288971,442.735138 
	C396.249664,449.376099 396.154724,456.017487 396.201263,462.657837 
	C396.217499,464.975006 396.537384,467.137726 399.969513,465.916931 
	C406.824829,463.478485 411.055573,458.683502 412.505646,451.693848 
	C415.301239,438.218384 416.623383,424.749451 410.625885,411.650421 
	C409.735443,409.705658 409.282440,407.304962 406.554047,407.223114 
	C403.619965,407.135101 403.023895,409.484985 401.995239,411.666382 
	C397.480194,421.241150 397.720520,431.663879 396.288971,442.735138 
z"/>
<path fill="#000000" opacity="1.000000" stroke="none" 
	d="
M591.714111,195.372726 
	C604.545166,220.724899 608.512573,246.729279 600.356995,273.971985 
	C597.348206,284.022400 592.103882,292.876740 584.494690,300.185699 
	C579.012939,305.451141 573.115356,306.174011 566.780212,301.972382 
	C540.088806,284.269928 522.143677,260.335632 518.160706,228.079071 
	C515.171204,203.868027 521.433411,181.746338 539.363220,164.056900 
	C547.738770,155.793625 553.237671,155.526718 562.663757,162.353714 
	C574.726318,171.090256 584.229309,182.102646 591.714111,195.372726 
M562.109741,216.422272 
	C562.954529,226.249664 565.418213,235.702332 568.790161,244.933594 
	C569.399170,246.600815 569.890320,248.707428 572.228271,248.655289 
	C574.716797,248.599762 574.528748,246.326111 575.166504,244.672302 
	C579.256897,234.066147 575.979248,224.027573 572.751221,214.046890 
	C571.703125,210.806290 571.402039,205.667633 566.520630,206.525467 
	C562.315002,207.264511 562.245972,211.847824 562.109741,216.422272 
M554.174316,259.667023 
	C556.812561,258.807617 559.540283,257.443817 559.625671,254.531937 
	C559.911926,244.762985 558.129639,235.403793 551.727234,227.601822 
	C549.673340,225.098907 547.488892,226.016129 546.567871,228.934525 
	C545.274841,233.032013 543.827515,237.155670 543.222595,241.379349 
	C542.083252,249.333572 547.015381,257.756470 554.174316,259.667023 
z"/>
<path fill="#000000" opacity="1.000000" stroke="none" 
	d="
M231.817932,753.373047 
	C223.968384,753.387146 224.009613,753.387085 224.022552,760.757202 
	C224.041260,771.423401 223.889832,782.091125 224.026733,792.755371 
	C224.078354,796.776672 222.688538,798.415894 218.510330,798.327393 
	C204.027405,798.020630 205.983185,800.046082 205.939087,785.917725 
	C205.851166,757.752136 205.895050,729.586121 205.904205,701.420288 
	C205.906387,694.750488 205.985565,694.595947 212.573868,694.713257 
	C224.336121,694.922546 224.012680,692.323975 224.022675,706.310608 
	C224.028992,715.143616 224.219757,723.982727 223.946014,732.807312 
	C223.784821,738.003662 226.918381,737.771729 230.437851,737.739868 
	C233.897018,737.708496 237.070084,738.128418 236.929565,732.824463 
	C236.642792,721.999451 237.014069,711.158020 236.806503,700.329346 
	C236.722672,695.955872 238.273849,694.476318 242.628418,694.615845 
	C256.533447,695.061218 254.982910,692.583923 255.001038,706.692871 
	C255.037033,734.691895 255.017242,762.691101 254.993790,790.690186 
	C254.987457,798.258423 254.943237,798.304565 247.618912,798.260132 
	C235.993713,798.189636 236.898087,799.595215 236.863251,787.518555 
	C236.834885,777.685547 236.772461,767.851318 236.904083,758.020020 
	C236.949615,754.618347 235.774963,752.963013 231.817932,753.373047 
z"/>
<path fill="#000000" opacity="1.000000" stroke="none" 
	d="
M786.999023,798.298218 
	C783.005920,798.292969 779.495972,798.082031 776.019897,798.335876 
	C771.846802,798.640564 770.568115,796.923462 770.605774,792.854614 
	C770.766052,775.547852 770.664001,758.238708 770.661621,740.930420 
	C770.659729,727.449951 770.843140,713.965759 770.566711,700.490967 
	C770.470276,695.792969 772.119751,694.365784 776.604370,694.629456 
	C785.226990,695.136475 793.938416,693.803162 802.503174,695.320740 
	C814.192810,697.392029 819.673279,703.486023 820.223389,715.309814 
	C821.190247,736.089050 821.225952,756.892334 820.214783,777.668823 
	C819.588379,790.538757 811.844421,797.609741 798.479919,798.240479 
	C794.826294,798.412903 791.158508,798.287231 786.999023,798.298218 
M788.314697,749.500000 
	C788.316650,758.154480 788.313049,766.808899 788.322266,775.463379 
	C788.329834,782.559204 791.587280,784.607666 798.291016,781.845337 
	C801.774902,780.409790 802.697144,777.649597 802.693542,774.226501 
	C802.674072,755.753418 802.686768,737.280273 802.678650,718.807190 
	C802.678284,717.977295 802.677856,717.128601 802.516724,716.320679 
	C801.639038,711.920410 797.809875,709.914124 791.952209,710.341919 
	C786.984680,710.704651 788.412415,714.383179 788.377014,717.045044 
	C788.237671,727.528442 788.317017,738.014771 788.314697,749.500000 
z"/>
<path fill="#000000" opacity="1.000000" stroke="none" 
	d="
M758.194824,704.146118 
	C760.096802,708.543884 760.677063,712.866089 760.806030,717.167114 
	C761.429077,737.949219 762.102966,758.749878 760.346436,779.502991 
	C759.207520,792.959778 752.387268,798.994629 738.837463,799.322388 
	C717.306213,799.843323 710.442017,793.606079 710.079712,772.120117 
	C709.751709,752.671509 709.219788,733.208740 710.631531,713.762268 
	C711.562317,700.941345 718.588562,693.909180 731.382385,693.712585 
	C736.510925,693.633789 741.667969,693.196960 746.735596,694.767883 
	C751.740051,696.318970 755.797058,698.872253 758.194824,704.146118 
M743.642517,740.507812 
	C743.356689,732.353943 743.108337,724.198486 742.772156,716.046692 
	C742.537598,710.358215 740.399048,708.202637 735.304626,708.303894 
	C730.501404,708.399353 728.583130,710.595215 728.258240,716.018372 
	C727.031677,736.494263 727.138977,756.966187 728.272827,777.440430 
	C728.547302,782.396118 730.639893,784.599365 735.253235,784.670349 
	C740.187500,784.746277 742.437866,782.566284 742.765991,777.468567 
	C743.536926,765.492126 743.834351,753.504883 743.642517,740.507812 
z"/>
<path fill="#000000" opacity="1.000000" stroke="none" 
	d="
M698.053833,703.263794 
	C700.275452,708.429199 701.207214,713.483154 701.215210,718.692505 
	C701.243958,737.513123 701.282104,756.334106 701.163025,775.153992 
	C701.143250,778.283203 700.591003,781.462097 699.878662,784.523499 
	C698.084351,792.234680 693.312439,796.973450 685.413696,798.557434 
	C679.614929,799.720337 673.779968,799.800049 668.034485,798.845154 
	C656.914124,796.996948 651.256897,790.417114 650.796448,778.348450 
	C649.984131,757.055237 649.970581,735.739685 650.832886,714.449341 
	C651.382751,700.874939 659.084656,693.822937 672.636230,693.698669 
	C677.278259,693.656067 681.931091,693.331238 686.528564,694.643982 
	C691.383789,696.030212 695.406494,698.365601 698.053833,703.263794 
M676.330322,708.292725 
	C670.449036,708.768494 668.447632,710.539917 668.418518,716.205200 
	C668.316040,736.152405 668.323669,756.100586 668.412537,776.047852 
	C668.438049,781.766724 670.720276,784.375977 675.279358,784.660950 
	C680.323730,784.976257 682.938721,782.805603 683.340637,776.841553 
	C683.809326,769.887146 683.783020,762.887146 683.696777,755.910278 
	C683.528442,742.291016 684.326721,728.658447 683.049500,715.050415 
	C682.688599,711.205872 681.140503,708.776367 676.330322,708.292725 
z"/>
<path fill="#000000" opacity="1.000000" stroke="none" 
	d="
M474.804504,694.718750 
	C478.905060,694.941711 478.269623,697.708618 478.280975,699.919312 
	C478.336639,710.749878 478.467072,721.584229 478.234528,732.410034 
	C478.142242,736.706055 479.866455,737.961792 483.847961,737.745972 
	C487.684021,737.538025 491.782318,738.471436 491.684082,732.351624 
	C491.510284,721.523682 491.766998,710.688721 491.580505,699.861206 
	C491.514160,696.008911 492.709381,694.523804 496.707733,694.623291 
	C511.753998,694.997620 509.181946,692.741394 509.249115,706.857056 
	C509.383881,735.183228 509.189850,763.511169 509.403229,791.836426 
	C509.440735,796.818054 508.084473,798.581299 502.942627,798.389343 
	C489.975250,797.905396 491.776337,799.750793 491.658997,787.235046 
	C491.569977,777.738098 491.366425,768.229126 491.733887,758.745667 
	C491.961426,752.871765 488.405304,753.467651 484.611267,753.312378 
	C480.500061,753.144043 478.045898,753.789001 478.196167,758.910217 
	C478.528351,770.231262 478.165710,781.571228 478.378540,792.898010 
	C478.456512,797.048157 476.986420,798.451355 472.886963,798.346069 
	C458.317719,797.971558 460.759125,800.049316 460.691925,786.212341 
	C460.554352,757.886230 460.645294,729.559021 460.655884,701.232239 
	C460.658325,694.707458 460.683838,694.703796 467.326874,694.682983 
	C469.659668,694.675659 471.992493,694.691345 474.804504,694.718750 
z"/>
<path fill="#000000" opacity="1.000000" stroke="none" 
	d="
M363.121490,781.184204 
	C363.683960,785.921997 364.071747,790.232727 364.733368,794.501038 
	C365.152924,797.207642 364.048981,798.220154 361.544952,798.234436 
	C361.378448,798.235413 361.211700,798.257141 361.045563,798.252319 
	C344.772430,797.782227 347.482117,801.422180 345.673828,784.812256 
	C345.619812,784.316040 345.635620,783.812500 345.585236,783.315735 
	C344.781403,775.389099 340.507111,772.744019 332.814453,775.246765 
	C330.515961,775.994568 330.448547,777.700806 330.281403,779.563171 
	C329.865204,784.200867 329.378845,788.832153 328.946136,793.468384 
	C328.637756,796.772339 327.269653,798.588135 323.534119,798.335022 
	C319.434113,798.057190 315.300781,798.271729 310.791473,798.271729 
	C310.328247,790.099731 312.165558,782.802368 313.076660,775.469543 
	C316.108276,751.069824 319.531464,726.719055 322.672577,702.332581 
	C323.655273,694.703369 323.464111,694.675842 331.058716,694.683289 
	C336.557220,694.688660 342.057190,694.783447 347.553589,694.680481 
	C350.444305,694.626404 351.835785,695.913696 352.197815,698.687439 
	C355.231018,721.926270 358.282196,745.162659 361.341248,768.398071 
	C361.883362,772.515930 362.487335,776.625671 363.121490,781.184204 
M339.851715,726.316650 
	C339.216003,721.274597 340.781647,715.873657 337.716064,710.503723 
	C335.925415,712.711243 336.327484,714.602356 336.174408,716.350342 
	C335.085815,728.782104 334.015411,741.215515 332.919067,753.646606 
	C332.777863,755.248047 331.638336,757.297241 333.443848,758.231934 
	C335.846588,759.475830 338.724548,759.300171 341.227814,758.410950 
	C343.471252,757.614136 342.712372,755.266968 342.555481,753.562988 
	C341.747467,744.788208 340.801788,736.026062 339.851715,726.316650 
z"/>
<path fill="#000000" opacity="1.000000" stroke="none" 
	d="
M282.571533,712.789612 
	C282.459717,719.702332 282.606964,726.201294 282.335205,732.682617 
	C282.164978,736.742737 283.865570,737.937256 287.651703,737.750183 
	C292.134949,737.528625 296.639404,737.777832 301.132446,737.698303 
	C304.065918,737.646423 305.170776,738.900452 305.362549,741.854980 
	C306.109741,753.368042 306.194550,753.362610 294.663208,753.377625 
	C282.389832,753.393616 282.390045,753.393555 282.391113,765.881226 
	C282.391418,769.543518 282.667480,773.232300 282.320953,776.861572 
	C281.864319,781.644592 283.926086,783.004456 288.381012,782.711792 
	C293.022430,782.406799 297.701782,782.734131 302.358856,782.594116 
	C305.498840,782.499634 306.783051,783.754395 306.995270,786.927917 
	C307.735168,797.991699 307.544678,798.279663 296.307037,798.277344 
	C287.650696,798.275574 278.991455,798.133240 270.339264,798.319641 
	C266.378815,798.404968 264.667145,797.229736 264.683960,792.957458 
	C264.805878,761.994873 264.794678,731.031250 264.670227,700.068665 
	C264.653748,695.966431 266.026978,694.520874 270.152008,694.607544 
	C280.634949,694.827820 291.127441,694.803955 301.611938,694.629211 
	C305.371002,694.566589 307.111603,695.683777 307.059692,699.681885 
	C306.891785,712.620483 307.356750,710.116760 296.774475,710.316650 
	C293.612579,710.376343 290.448090,710.298035 287.286255,710.358643 
	C285.497284,710.392883 283.501617,710.101196 282.571533,712.789612 
z"/>
<path fill="#000000" opacity="1.000000" stroke="none" 
	d="
M516.049805,699.921021 
	C515.754272,698.090820 515.138489,696.619812 516.491455,694.718262 
	C520.783752,694.718262 525.404724,694.762756 530.024231,694.699463 
	C532.326904,694.667969 533.278809,695.970337 533.701050,697.959900 
	C535.974243,708.670349 538.869568,719.256958 539.393372,730.294495 
	C539.654358,735.794922 540.453064,741.269775 541.863037,746.751526 
	C544.467163,742.221008 544.311584,737.205811 544.432861,732.563965 
	C544.736267,720.957092 548.011108,709.935730 549.936157,698.654907 
	C550.380737,696.049500 551.626221,694.532715 554.611694,694.649780 
	C559.053772,694.824036 563.507751,694.694946 568.470764,694.694946 
	C568.230042,701.547058 566.126038,707.345032 564.811646,713.240295 
	C560.653809,731.888855 556.116760,750.452820 551.946472,769.098694 
	C550.224487,776.797546 551.326233,784.694763 551.294983,792.494385 
	C551.278015,796.724976 550.071106,798.485474 545.594421,798.360596 
	C530.722717,797.945557 532.372437,800.224304 532.971436,785.704285 
	C533.618286,770.024841 528.617432,755.518982 525.537354,740.610168 
	C522.747437,727.106140 519.316345,713.734619 516.049805,699.921021 
z"/>
<path fill="#000000" opacity="1.000000" stroke="none" 
	d="
M620.873474,717.138550 
	C620.753235,722.436951 620.716736,727.263306 620.491394,732.080811 
	C620.301819,736.134277 621.464966,738.264709 626.130859,737.797119 
	C630.415405,737.367798 634.779114,737.785767 639.105042,737.694580 
	C641.990417,737.633850 643.366272,738.706604 643.345947,741.763123 
	C643.251648,755.922546 644.582947,753.158264 632.735474,753.330444 
	C620.885071,753.502686 620.889282,753.366150 620.890381,764.960083 
	C620.891235,773.948975 620.769104,782.939514 620.909912,791.926086 
	C620.979675,796.378479 619.724060,798.545898 614.669067,798.376526 
	C601.181396,797.924561 602.806702,800.183594 602.773987,786.348389 
	C602.707031,758.049988 602.751282,729.751343 602.752747,701.452759 
	C602.753113,694.714172 602.758667,694.696655 609.250366,694.688904 
	C619.404541,694.676819 629.561462,694.827393 639.711609,694.626526 
	C643.702820,694.547607 644.969421,696.187866 644.951416,699.924927 
	C644.889526,712.765564 644.942932,710.072815 634.931641,710.311646 
	C632.436096,710.371216 629.911316,710.554138 627.446594,710.272461 
	C622.491516,709.706177 620.161987,711.544189 620.873474,717.138550 
z"/>
<path fill="#000000" opacity="1.000000" stroke="none" 
	d="
M439.364624,743.000122 
	C439.356873,759.973328 439.234711,776.447815 439.419617,792.918823 
	C439.466614,797.106628 437.986633,798.416870 433.936188,798.334656 
	C419.633545,798.044312 421.796265,799.821838 421.727661,786.117310 
	C421.611847,762.988831 421.597015,739.858582 421.780212,716.730957 
	C421.817505,712.024536 420.376282,710.185730 415.529510,710.238892 
	C405.916931,710.344482 403.816833,707.299683 405.889160,697.580017 
	C406.384216,695.258179 407.778015,694.693054 409.809479,694.694214 
	C423.620270,694.702026 437.431274,694.739075 451.241730,694.670044 
	C454.282684,694.654846 455.479340,696.011902 455.291656,698.907227 
	C455.248749,699.569458 455.308105,700.237793 455.308228,700.903320 
	C455.310364,711.725098 455.763672,710.248108 445.946472,710.340149 
	C440.180634,710.394226 439.422516,711.115845 439.384216,717.041443 
	C439.329346,725.527344 439.366394,734.013855 439.364624,743.000122 
z"/>
<path fill="#000000" opacity="1.000000" stroke="none" 
	d="
M371.110779,738.000000 
	C371.179901,724.675171 371.326569,711.849915 371.263550,699.025696 
	C371.247406,695.737549 372.500671,694.599609 375.682281,694.660522 
	C391.736694,694.967834 389.118225,692.547424 389.218414,707.499573 
	C389.373627,730.664246 389.358856,753.831360 389.173370,776.995544 
	C389.138428,781.356018 390.400818,783.010803 394.839905,782.698853 
	C399.650269,782.360718 404.502594,782.667847 409.333099,782.549927 
	C412.070221,782.483154 413.286011,783.568787 413.280487,786.350952 
	C413.252075,800.651306 414.427643,798.076721 402.344238,798.248901 
	C393.513184,798.374695 384.678223,798.203979 375.846161,798.288513 
	C372.765839,798.318054 371.300964,797.314819 371.303864,793.972229 
	C371.319946,775.481567 371.190186,756.990784 371.110779,738.000000 
z"/>
<path fill="#000000" opacity="1.000000" stroke="none" 
	d="
M400.534790,822.402344 
	C409.881348,823.775696 413.706726,830.019348 410.331207,838.099243 
	C409.557465,839.951416 409.513458,841.406372 410.199341,843.278198 
	C413.459290,852.174805 409.176331,858.958069 399.768188,859.927612 
	C397.790955,860.131409 395.777618,860.029968 393.781982,859.999512 
	C391.144470,859.959351 389.838501,858.583679 389.835571,855.933044 
	C389.824738,846.112000 389.831482,836.290710 389.757782,826.470093 
	C389.737213,823.730164 390.917053,822.522278 393.650360,822.571594 
	C395.808380,822.610596 397.970215,822.434998 400.534790,822.402344 
M401.675110,844.813904 
	C399.772888,844.128845 397.939758,844.020325 397.489502,846.491821 
	C397.183716,848.170166 396.644043,850.189758 398.433594,851.460693 
	C399.612274,852.297791 400.996429,851.967102 402.087402,851.102966 
	C403.889160,849.675903 404.202667,847.900024 402.960144,845.922485 
	C402.790894,845.653015 402.511536,845.452698 401.675110,844.813904 
M399.662628,836.589600 
	C401.642487,836.667908 403.246826,836.105408 403.730560,833.948120 
	C404.040741,832.564880 403.615326,831.334351 402.423401,830.513672 
	C401.170013,829.650696 399.451691,828.832642 398.422943,830.111450 
	C396.796082,832.134033 396.489349,834.528870 399.662628,836.589600 
z"/>
<path fill="#000000" opacity="1.000000" stroke="none" 
	d="
M550.768372,821.766724 
	C558.348694,824.035461 560.377625,826.639221 560.366821,833.950195 
	C560.357422,840.260742 560.298950,846.575195 560.039001,852.878723 
	C559.970215,854.548340 560.492004,855.741699 561.351440,856.987427 
	C562.666809,858.893982 561.244690,860.062500 560.099976,861.249756 
	C558.874878,862.520325 557.524048,863.536133 555.831848,861.971130 
	C554.238403,860.497375 552.338745,860.342468 550.286255,860.269714 
	C543.699463,860.036255 539.290771,856.018066 538.935974,849.485474 
	C538.630127,843.852844 538.637146,838.173218 538.980225,832.543213 
	C539.379333,825.993225 543.450684,822.376038 550.768372,821.766724 
M552.701904,832.428528 
	C552.202881,830.672119 551.254028,829.253601 549.229858,829.668823 
	C547.109436,830.103760 546.435120,831.921753 546.398865,833.849304 
	C546.311462,838.497864 546.326233,843.148865 546.346924,847.798645 
	C546.357239,850.114441 546.901245,852.454712 549.678589,852.431030 
	C552.491028,852.407104 552.930176,849.922424 552.951538,847.697815 
	C552.997742,842.885315 552.873413,838.071167 552.701904,832.428528 
z"/>
<path fill="#000000" opacity="1.000000" stroke="none" 
	d="
M324.438599,859.186890 
	C318.568207,860.390564 317.922241,859.884583 317.826080,854.492249 
	C317.787445,852.326782 317.764282,850.160095 317.792084,847.994751 
	C317.822693,845.608887 316.995575,844.221924 314.306061,844.307861 
	C311.791443,844.388184 311.279907,845.833618 311.302155,847.926147 
	C311.332275,850.757996 311.246033,853.591370 311.288635,856.422913 
	C311.327759,859.025635 309.894836,859.944946 307.532867,859.981628 
	C305.128937,860.018921 303.744385,859.036560 303.746368,856.469299 
	C303.754425,846.139465 303.756500,835.809509 303.728210,825.479736 
	C303.721710,823.108643 305.021362,822.195557 307.171478,822.210632 
	C309.319183,822.225647 311.234711,822.633850 311.255157,825.410400 
	C311.271118,827.576111 311.289856,829.741821 311.307495,831.907532 
	C311.326660,834.260132 310.984039,836.763000 314.646149,836.690735 
	C318.399139,836.616577 317.664215,833.897888 317.768250,831.690430 
	C317.862274,829.695251 317.821594,827.692871 317.813812,825.693787 
	C317.803497,823.052063 319.402832,822.242065 321.705566,822.278687 
	C323.798065,822.311951 325.284515,823.093567 325.243896,825.488464 
	C325.055145,836.623169 325.950684,847.773132 324.438599,859.186890 
z"/>
<path fill="#000000" opacity="1.000000" stroke="none" 
	d="
M462.380341,843.676819 
	C454.707977,838.276672 453.390381,829.580811 459.202393,824.526611 
	C462.862396,821.343933 467.643372,820.855225 471.708099,823.354126 
	C476.016449,826.002686 477.364716,830.094788 477.139374,834.907959 
	C477.016937,837.523499 475.099121,837.496582 473.229889,837.680054 
	C471.019379,837.896973 469.629028,837.259705 469.695068,834.767395 
	C469.708252,834.269348 469.651459,833.769775 469.635315,833.270630 
	C469.574768,831.396729 468.720306,830.049988 466.872742,829.595459 
	C465.340363,829.218445 464.273773,830.113342 463.689758,831.410706 
	C462.931396,833.095276 463.187408,834.886658 464.639984,835.954773 
	C467.037537,837.718018 469.758911,839.036194 472.192993,840.755432 
	C479.112244,845.642517 478.760529,854.717407 471.502899,858.906860 
	C468.072205,860.887146 464.439301,860.983276 461.047485,858.929932 
	C457.725586,856.918823 455.887970,853.815186 455.707306,849.856689 
	C455.626617,848.089172 455.838715,846.428040 458.049255,846.119263 
	C460.145782,845.826477 462.112274,845.952698 462.911072,848.425049 
	C463.114838,849.055725 463.184265,849.728882 463.373016,850.365479 
	C463.800995,851.809204 464.774017,852.624878 466.297455,852.583130 
	C467.800446,852.541931 468.762299,851.634094 469.276825,850.299805 
	C469.870880,848.759460 468.960602,847.680298 467.838104,846.920349 
	C466.189819,845.804565 464.410522,844.882202 462.380341,843.676819 
z"/>
<path fill="#000000" opacity="1.000000" stroke="none" 
	d="
M581.312866,832.066162 
	C581.323547,837.707214 581.330383,842.857788 581.346619,848.008301 
	C581.353638,850.247681 582.187012,852.168701 584.591370,852.253235 
	C587.171631,852.343994 587.768982,850.261230 587.778992,848.089844 
	C587.810974,841.111816 587.839783,834.133484 587.801453,827.155579 
	C587.786194,824.378113 588.227478,822.173584 591.736267,822.153198 
	C595.501343,822.131226 595.363342,824.680420 595.353394,827.277649 
	C595.325439,834.588135 595.405151,841.899597 595.314941,849.209167 
	C595.236938,855.529236 591.242249,859.959595 585.537964,860.291748 
	C579.449402,860.646301 574.146362,856.235657 573.872742,849.855042 
	C573.531372,841.894897 573.802490,833.909058 573.775940,825.934448 
	C573.767761,823.463196 574.958801,822.266357 577.392700,822.208557 
	C580.052795,822.145569 581.416443,823.320801 581.303345,826.093384 
	C581.228943,827.917603 581.304443,829.747986 581.312866,832.066162 
z"/>
<path fill="#000000" opacity="1.000000" stroke="none" 
	d="
M614.026367,858.023438 
	C612.177490,860.313721 610.012451,860.571472 607.988281,859.445496 
	C605.936401,858.304077 606.926270,856.243591 607.252258,854.490295 
	C609.009827,845.037048 610.908813,835.606567 612.443237,826.117188 
	C612.981750,822.787292 614.825378,822.130127 617.584778,822.140747 
	C620.092285,822.150391 622.088989,822.574341 622.609009,825.672791 
	C624.337769,835.973450 626.244751,846.244019 628.046509,856.532654 
	C628.285889,857.899353 628.183105,859.318665 626.508118,859.747864 
	C624.498169,860.262878 622.397827,860.333435 621.095459,858.388123 
	C619.010437,855.273926 616.786987,855.233154 614.026367,858.023438 
z"/>
<path fill="#000000" opacity="1.000000" stroke="none" 
	d="
M435.841248,822.063477 
	C437.474152,822.103271 438.641113,822.117004 439.803650,822.196167 
	C442.260742,822.363464 443.241119,823.705872 443.216858,826.153076 
	C443.191559,828.708801 441.892151,829.507080 439.562408,829.914185 
	C436.881226,830.382690 432.307861,828.177917 432.470459,833.526550 
	C432.618408,838.395386 436.846893,836.392639 439.449615,836.730652 
	C441.800110,837.035889 443.158112,837.775024 443.215668,840.348572 
	C443.277039,843.094971 442.060883,844.192993 439.345459,844.325867 
	C437.124023,844.434570 434.420593,843.296814 432.798706,845.526062 
	C431.712128,847.019592 431.884003,849.166870 432.726013,850.807312 
	C433.704498,852.713806 435.774506,852.562500 437.615601,852.460693 
	C440.339325,852.310120 443.138977,851.788635 443.240143,855.982239 
	C443.346893,860.409546 440.266266,860.096985 437.420319,860.076538 
	C422.372742,859.968384 424.941437,861.435669 424.713501,847.816284 
	C424.607544,841.485046 424.684998,835.150635 424.699219,828.817627 
	C424.714050,822.213379 424.778015,822.157898 431.373596,822.085938 
	C432.706757,822.071350 434.040100,822.072937 435.841248,822.063477 
z"/>
<path fill="#000000" opacity="1.000000" stroke="none" 
	d="
M338.873352,851.867065 
	C338.907562,843.394592 339.069427,835.403809 338.920349,827.418762 
	C338.848022,823.544556 340.389526,821.924866 344.200806,822.085022 
	C347.191223,822.210876 350.191406,822.135437 353.186798,822.104858 
	C356.042267,822.075684 357.395905,823.247009 357.359283,826.300720 
	C357.322754,829.346985 355.594604,829.881104 353.176544,829.909851 
	C351.846527,829.925659 350.515259,829.975525 349.188080,830.063416 
	C347.093994,830.202026 346.369293,831.477600 346.397278,833.431091 
	C346.425446,835.400696 347.240082,836.603577 349.313416,836.701416 
	C350.476715,836.756287 351.643311,836.825928 352.805817,836.793945 
	C355.438812,836.721680 357.328979,837.269104 357.367737,840.554443 
	C357.407257,843.907288 355.438263,844.168762 352.849152,844.337341 
	C350.340485,844.500671 346.882935,842.973755 346.362457,847.590271 
	C345.832947,852.286987 348.456726,852.889404 352.117981,852.566467 
	C354.920563,852.319336 357.587799,852.181641 357.372559,856.368530 
	C357.258270,858.591675 356.492065,859.879272 354.228088,859.962463 
	C351.734741,860.054016 349.237335,860.066406 346.741791,860.061157 
	C338.934784,860.044800 338.934814,860.035217 338.873352,851.867065 
z"/>
<path fill="#000000" opacity="1.000000" stroke="none" 
	d="
M729.884155,846.329285 
	C728.934204,838.085693 724.845520,831.156555 723.486816,823.202942 
	C726.185852,821.800964 728.708618,821.195190 730.538879,824.013000 
	C731.962708,826.205383 731.793030,829.166931 733.584167,831.486023 
	C735.733032,829.963196 735.836426,827.475098 736.426697,825.383057 
	C737.347900,822.117676 739.589050,821.683655 742.211609,822.336365 
	C745.435059,823.138672 743.824097,825.487488 743.248718,827.175720 
	C739.983643,836.755432 736.082825,846.178955 737.276978,856.672363 
	C737.538147,858.967773 736.136658,859.954895 733.943970,860.028137 
	C731.632935,860.105286 729.962219,859.366089 729.911011,856.763733 
	C729.845581,853.439026 729.895447,850.112061 729.884155,846.329285 
z"/>
<path fill="#000000" opacity="1.000000" stroke="none" 
	d="
M508.936279,828.518555 
	C502.737518,829.594971 501.820190,833.384155 502.220367,838.643066 
	C502.648590,844.270081 502.279205,849.955750 502.319183,855.615417 
	C502.336304,858.042542 501.878571,859.922546 498.885315,859.983215 
	C495.795837,860.045837 494.838409,858.312256 494.842072,855.562744 
	C494.851166,848.737549 494.769592,841.911865 494.825836,835.087280 
	C494.848755,832.306824 494.418152,830.152954 490.994202,829.904419 
	C488.179626,829.700134 487.585938,827.755798 487.778656,825.280518 
	C487.993195,822.525146 489.992767,822.197327 492.041779,822.139099 
	C495.867493,822.030396 499.708405,822.260254 503.523651,822.029541 
	C508.091522,821.753357 510.159912,823.434204 508.936279,828.518555 
z"/>
<path fill="#000000" opacity="1.000000" stroke="none" 
	d="
M698.749878,851.905457 
	C698.745422,845.922180 698.657898,840.422302 698.773071,834.926697 
	C698.833435,832.044617 698.199341,830.080994 694.853210,829.836914 
	C692.322449,829.652222 691.717285,827.852905 691.744019,825.572571 
	C691.776001,822.831055 693.553589,822.221375 695.710266,822.177002 
	C700.206177,822.084412 704.705322,822.059204 709.201721,822.115295 
	C711.336426,822.141846 713.127563,822.694031 713.274597,825.432495 
	C713.408508,827.926880 712.931213,829.791565 710.007568,829.904724 
	C706.896179,830.025330 706.226929,831.888062 706.265930,834.597290 
	C706.361877,841.260376 706.302856,847.925537 706.334534,854.589722 
	C706.347595,857.345825 706.568665,860.139709 702.491333,860.068665 
	C698.846558,860.005066 698.711609,857.547852 698.756958,854.889709 
	C698.771179,854.056946 698.753784,853.223694 698.749878,851.905457 
z"/>
<path fill="#000000" opacity="1.000000" stroke="none" 
	d="
M281.771057,859.932556 
	C278.110321,860.064270 277.605927,858.039734 277.626801,855.394958 
	C277.680481,848.590881 277.517090,841.783508 277.668213,834.982544 
	C277.738251,831.830750 277.032227,829.837219 273.430328,829.794128 
	C271.269867,829.768372 270.089081,828.610352 270.293610,826.273804 
	C270.491852,824.008728 271.286133,822.580872 273.913391,822.559509 
	C278.388275,822.523193 282.860443,822.232544 287.335541,822.116882 
	C289.675446,822.056396 291.641205,822.562805 291.846436,825.503601 
	C292.024750,828.058716 291.228302,829.721436 288.427551,829.899780 
	C285.219330,830.104065 284.919159,832.363281 284.921356,834.851990 
	C284.927216,841.490479 284.964844,848.129456 284.896118,854.767273 
	C284.874390,856.865723 285.148834,859.275818 281.771057,859.932556 
z"/>
<path fill="#000000" opacity="1.000000" stroke="none" 
	d="
M650.122986,851.713013 
	C652.022400,852.773682 653.682861,852.447632 655.331604,852.296448 
	C657.951111,852.056152 659.358215,852.960632 659.366516,855.886536 
	C659.373962,858.530762 658.526611,860.028870 655.734070,860.028687 
	C655.568420,860.028625 655.402466,860.047180 655.237122,860.061646 
	C640.956665,861.316467 640.951050,861.316467 640.923584,846.990479 
	C640.911133,840.514465 640.935059,834.038391 640.924622,827.562378 
	C640.920044,824.743774 641.010620,822.086670 644.964478,822.205994 
	C648.711243,822.319153 648.450134,824.879944 648.424133,827.466187 
	C648.362427,833.609497 648.372192,839.753784 648.388489,845.897583 
	C648.393738,847.870605 648.161133,849.931213 650.122986,851.713013 
z"/>
<path fill="#000000" opacity="1.000000" stroke="none" 
	d="
M672.628052,835.078552 
	C672.614136,831.770386 672.688477,828.944153 672.561340,826.127136 
	C672.455078,823.772766 673.080078,822.245728 675.747864,822.176941 
	C678.326843,822.110474 679.919739,823.081421 679.932190,825.864319 
	C679.977722,835.989807 680.029785,846.115234 680.042603,856.240723 
	C680.046021,858.957764 678.546448,860.069092 675.892639,859.951660 
	C673.264099,859.835266 672.595093,858.311218 672.612732,855.984314 
	C672.664307,849.178040 672.629822,842.371155 672.628052,835.078552 
z"/>
<path fill="#000000" opacity="1.000000" stroke="none" 
	d="
M475.128174,505.853149 
	C462.867798,492.775696 457.794312,476.948639 455.135468,460.063782 
	C452.144653,441.070770 453.337189,422.504242 461.728271,404.965179 
	C470.516571,386.595825 486.708710,380.145538 505.780029,387.165314 
	C520.279907,392.502441 531.485718,402.374939 541.042542,414.189087 
	C552.737976,428.647125 561.599487,444.571869 563.829346,463.366425 
	C566.523193,486.071625 555.618042,514.119812 528.460144,522.068298 
	C507.584198,528.178284 490.282227,520.713745 475.128174,505.853149 
M515.417786,461.951263 
	C507.589539,466.355347 503.337341,473.561279 499.798157,481.453491 
	C497.120087,487.425568 501.161377,497.006836 510.327484,496.156006 
	C526.031189,494.698303 536.624146,475.174805 529.367493,460.040649 
	C526.635559,454.343109 523.827881,453.889923 519.221008,458.393036 
	C518.149719,459.440186 517.053772,460.462128 515.417786,461.951263 
M492.672424,442.164764 
	C492.709076,434.020996 493.379852,425.818176 490.964447,417.864410 
	C489.067780,411.618622 485.470673,410.727203 480.753387,415.257385 
	C479.805389,416.167786 478.878571,417.222076 478.312347,418.389648 
	C471.404236,432.634033 471.393250,446.906616 478.578918,461.033783 
	C479.915436,463.661407 481.917297,466.750824 485.312012,466.091125 
	C488.982452,465.377869 490.227631,461.888855 490.711395,458.444031 
	C491.428345,453.338806 491.999634,448.213135 492.672424,442.164764 
z"/>
</svg>