<?xml version="1.0" encoding="UTF-8"?>
<svg version="1.1" xmlns="http://www.w3.org/2000/svg" width="512" height="512">
<path d="M0 0 C0.82516113 0.01208496 1.65032227 0.02416992 2.50048828 0.03662109 C38.444263 1.13186077 77.68581863 13.09283475 103 39.6875 C111.70707816 49.91429406 117.44253841 62.5818139 120.8125 75.5 C121.19019531 74.98953125 121.56789063 74.4790625 121.95703125 73.953125 C135.54050791 56.0114837 159.39358628 29.82490745 182.8125 25.5 C191.02465528 24.62115531 198.09674059 26.10068585 204.85546875 30.97265625 C210.27449075 35.86017502 213.10759455 41.82727622 214.19140625 49.01171875 C214.55260921 56.43385694 212.25518237 62.82140197 208.17578125 68.96484375 C205.07847157 72.28741232 201.60776193 74.39657051 197.75 76.75 C190.66379957 81.21474193 184.05259132 85.88391781 177.8125 91.5 C176.91273438 92.30566406 176.01296875 93.11132812 175.0859375 93.94140625 C160.25110904 107.96136385 151.15541157 125.70157253 143.8125 144.5 C144.58102295 144.08226318 145.3495459 143.66452637 146.14135742 143.23413086 C181.09122085 124.36209001 215.96739301 112.68053621 255.7734375 123.53125 C285.52028206 132.76087892 307.31675093 152.2708055 321.89404297 179.70605469 C348.66566839 231.99683182 347.51880252 298.75673803 330.35131836 353.69873047 C320.52785075 383.85933966 304.77902065 412.87242072 284.8125 437.5 C283.70648438 438.89412109 283.70648438 438.89412109 282.578125 440.31640625 C268.80519157 457.48373285 253.29268081 474.23214441 235.4921875 487.26464844 C233.81073463 488.50129837 232.15512436 489.76746636 230.5 491.0390625 C221.23757521 498.03778842 211.29727499 503.54399664 200.8125 508.5 C199.77222656 509.00015625 198.73195313 509.5003125 197.66015625 510.015625 C183.88255883 515.38302921 163.86133479 514.75839072 150.01171875 509.91015625 C144.77189723 507.60054017 139.65687754 505.09049265 134.6015625 502.40234375 C122.34135427 496.01387661 109.45204699 494.65410836 96.08203125 498.31640625 C91.4173519 500.00505361 87.08470299 502.22243659 82.68920898 504.51000977 C65.65128867 513.36479873 44.31811621 516.42993433 25.6875 510.5625 C23.36447395 509.61519499 21.07196706 508.59025017 18.8125 507.5 C17.80533936 507.02530273 17.80533936 507.02530273 16.77783203 506.54101562 C2.01968158 499.49895338 -10.78661972 490.09677059 -23.1875 479.5 C-23.93644531 478.86320312 -24.68539062 478.22640625 -25.45703125 477.5703125 C-37.97368719 466.61024239 -50.098873 454.74749259 -60.1875 441.5 C-60.98027344 440.50097656 -61.77304688 439.50195312 -62.58984375 438.47265625 C-106.664465 382.72795696 -126.63110133 315.00559319 -118.55126953 244.38232422 C-113.59038116 205.07477515 -100.60225894 166.66173384 -68.85253906 140.76757812 C-53.48096122 129.06534467 -36.05712063 123.39520424 -17.1875 120.5 C-17.51363281 119.79617187 -17.83976562 119.09234375 -18.17578125 118.3671875 C-32.90982543 85.07433251 -26.5194173 45.32629874 -15.125 11.9375 C-14.89192139 11.24108398 -14.65884277 10.54466797 -14.41870117 9.82714844 C-11.52771753 1.79296149 -8.3802902 -0.20006921 0 0 Z M2.8125 18.5 C-0.12032819 25.2886831 -2.24579223 31.96512466 -3.8125 39.1875 C-4.02414795 40.15155762 -4.2357959 41.11561523 -4.45385742 42.10888672 C-9.51472087 65.68428871 -11.70744135 91.37388035 -0.1875 113.5 C0.55113281 115.08748047 0.55113281 115.08748047 1.3046875 116.70703125 C5.08147661 120.91326835 9.06108547 120.8998822 14.5 121.5625 C16.59092794 121.87432511 18.68078721 122.193398 20.76953125 122.51953125 C21.79900879 122.6788916 22.82848633 122.83825195 23.88916016 123.00244141 C37.11067613 125.25277125 48.91449708 130.50660301 60.8125 136.5 C62.05685608 137.11676503 63.30162852 137.73269094 64.546875 138.34765625 C67.30886706 139.71892696 70.06400882 141.10192356 72.8125 142.5 C66.87085234 114.98078978 53.2821815 91.57984246 33.8125 71.5 C32.90757812 70.56671875 32.00265625 69.6334375 31.0703125 68.671875 C26.26943572 63.79768123 26.26943572 63.79768123 21.0859375 59.34375 C18.8125 57.5 18.8125 57.5 17.8125 55.5 C17.55245877 51.98944334 17.42452735 49.36723298 18.875 46.125 C21.77923519 43.68918984 24.07207491 43.56449009 27.8125 43.5 C35.53032479 47.40886595 41.83178612 54.36189891 47.8125 60.5 C48.34617188 60.97695313 48.87984375 61.45390625 49.4296875 61.9453125 C70.44713274 81.39299004 83.07801396 110.14853478 89.8125 137.5 C90.4725 137.5 91.1325 137.5 91.8125 137.5 C92.02865967 136.83057373 92.24481934 136.16114746 92.4675293 135.47143555 C93.47171572 132.37459395 94.48580211 129.28107668 95.5 126.1875 C95.83966797 125.13498047 96.17933594 124.08246094 96.52929688 122.99804688 C98.27040326 117.70963964 100.14345406 112.65088023 102.546875 107.625 C107.75535733 96.47689678 104.80006414 83.71519042 100.8125 72.5 C91.87380899 49.81392841 75.08054762 38.76893176 53.63671875 29.0625 C38.20713263 22.65852133 19.56698132 18.22533637 2.8125 18.5 Z M148.5546875 70.75390625 C144.25800987 75.05670451 140.50859194 79.67959594 136.8125 84.5 C136.07386719 85.42296875 135.33523438 86.3459375 134.57421875 87.296875 C121.23850204 104.34079619 105.8125 131.18658501 105.8125 153.5 C107.89576131 153.52709444 109.97912441 153.54643873 112.0625 153.5625 C113.80273438 153.57990234 113.80273438 153.57990234 115.578125 153.59765625 C116.64546875 153.56542969 117.7128125 153.53320312 118.8125 153.5 C119.56273437 153.49097656 120.31296875 153.48195313 121.0859375 153.47265625 C123.20540221 152.5194814 123.20540221 152.5194814 124.0859375 149.2109375 C124.46696839 147.76921272 124.83317037 146.32351834 125.1875 144.875 C125.61175021 143.30971406 126.04155263 141.74592365 126.4765625 140.18359375 C126.69602539 139.39452637 126.91548828 138.60545898 127.14160156 137.79248047 C133.36055931 116.54211174 145.76853562 98.46673543 160.8125 82.5 C161.36164063 81.89800781 161.91078125 81.29601562 162.4765625 80.67578125 C170.75450927 71.92888676 180.8184548 65.20641021 191.23046875 59.2890625 C193.86151482 57.46603814 194.84249392 56.50582132 195.8125 53.5 C195.72979413 49.53011806 195.29521977 47.99576625 192.5 45.125 C180.77230622 38.03383632 156.85850483 62.87331123 148.5546875 70.75390625 Z M-70.81005859 167.88867188 C-99.71174121 201.69780077 -104.73725483 254.11429428 -101.98535156 296.62255859 C-97.71234074 346.39104126 -76.38086602 392.90640601 -45.1875 431.5 C-44.55134766 432.29277344 -44.55134766 432.29277344 -43.90234375 433.1015625 C-30.88341116 449.19063143 -16.09959609 464.50290557 0.8125 476.5 C1.69832764 477.14437012 1.69832764 477.14437012 2.60205078 477.80175781 C19.50510766 490.03370181 36.51638334 497.70867829 57.8125 494.5 C66.09163103 492.75859624 73.09951548 489.44097068 80.421875 485.36865234 C95.24702089 477.20323996 113.54011334 476.3231307 129.8125 480.5 C135.14898465 482.32639047 140.17540668 484.62879829 145.15234375 487.27734375 C159.35308087 494.83296654 173.56137175 497.62994833 189.375 493.58984375 C203.03391471 489.09276804 214.66744523 481.42779091 225.8125 472.5 C227.26462891 471.3553125 227.26462891 471.3553125 228.74609375 470.1875 C243.02622383 458.54510096 256.73877667 445.25087573 267.8125 430.5 C268.72269224 429.34015115 269.63425582 428.1813777 270.546875 427.0234375 C282.0677045 412.23471677 291.98829146 396.30205079 299.94482422 379.32373047 C300.77612164 377.57646212 301.65468328 375.85191798 302.53515625 374.12890625 C327.75498311 323.51690747 330.94227616 260.33905859 313.578125 206.703125 C307.74049991 189.90506097 299.21218633 175.29149798 286.8125 162.5 C285.98878906 161.56607422 285.98878906 161.56607422 285.1484375 160.61328125 C271.61102946 145.7754818 249.29951818 138.57679709 229.76269531 137.3737793 C205.80162922 136.48413575 185.70711133 142.87863561 164.89453125 154.35644531 C138.45875746 168.87628167 112.78766289 174.54645376 83.140625 166.50390625 C72.2751974 163.19155543 62.69883229 157.93972747 52.84277344 152.39111328 C12.11014157 129.50889717 -38.09779974 131.95223037 -70.81005859 167.88867188 Z " fill="#000000" transform="translate(145.1875,-0.49999999999999994)"/>
<path d="M0 0 C2.34474722 2.74901398 2.77407883 3.78561303 3.1875 7.4375 C2.8125 11.125 2.8125 11.125 0.8125 13.79296875 C-2.93072336 16.70274003 -6.00011695 16.91695766 -10.5625 17.125 C-23.6280355 18.17433912 -34.96305254 21.51099665 -45.1875 30.125 C-45.80882812 30.63546875 -46.43015625 31.1459375 -47.0703125 31.671875 C-66.28775163 49.07960013 -71.28346131 80.85692524 -72.5793457 105.35411072 C-72.6124585 106.04549637 -72.64557129 106.73688202 -72.6796875 107.44921875 C-72.71312256 108.13782486 -72.74655762 108.82643097 -72.78100586 109.53590393 C-72.9129436 112.34869081 -73.03883089 115.16130539 -73.14111328 117.9753418 C-73.22042752 120.07194485 -73.32323676 122.16634239 -73.4296875 124.26171875 C-73.4797998 125.48592529 -73.52991211 126.71013184 -73.58154297 127.97143555 C-74.29017732 131.65936058 -75.23747569 132.87043024 -78.1875 135.125 C-81.956456 136.35400739 -83.69414753 136.3052634 -87.4375 134.9375 C-90.37595395 133.00079171 -90.99973562 132.32536513 -92.1875 129.125 C-95.47390469 94.56942131 -87.52307811 51.45235374 -65.58203125 23.8671875 C-52.84041601 9.2756477 -20.06839436 -11.80493786 0 0 Z " fill="#000000" transform="translate(151.1875,154.875)"/>
</svg>
