<?xml version="1.0" encoding="UTF-8"?>
<svg version="1.1" xmlns="http://www.w3.org/2000/svg" width="512" height="512">
<path d="M0 0 C1.3603627 1.15643736 2.69489109 2.34404822 4 3.5625 C4.67160156 4.18125 5.34320313 4.8 6.03515625 5.4375 C15.81284518 15.38474423 23.84307446 32.14306939 24.03710938 46.26293945 C24.02486328 47.02179443 24.01261719 47.78064941 24 48.5625 C24.75009338 48.55361755 25.50018677 48.54473511 26.27301025 48.5355835 C33.39183158 48.45495548 40.51049092 48.39429328 47.62964249 48.35525131 C51.28845172 48.33450353 54.94687916 48.30642568 58.60546875 48.26074219 C62.14574608 48.21681992 65.68565958 48.19326699 69.22618866 48.18299103 C71.21343502 48.17215946 73.20053794 48.1410101 75.18756104 48.10931396 C89.97082064 48.10571315 100.52880972 52.66954796 111.2890625 62.6953125 C121.00399364 72.84686976 123.99485212 85.19049296 125.19824219 98.76489258 C125.30312014 99.88717821 125.40799809 101.00946384 125.51605415 102.16575813 C125.86605411 105.92895463 126.20643156 109.69295908 126.546875 113.45703125 C126.79613694 116.16642784 127.04743114 118.87563509 127.2986145 121.58485413 C127.91076955 128.20127634 128.51566259 134.81834303 129.11787498 141.43567687 C129.60920125 146.83355416 130.102846 152.23121453 130.59820557 157.62872314 C130.66890396 158.3990815 130.73960236 159.16943985 130.81244314 159.9631424 C130.956283 161.53031527 131.1001319 163.09748732 131.24398971 164.66465855 C132.21777472 175.27434552 133.18971615 185.88419863 134.15737915 196.4944458 C135.92003715 215.81715152 137.69979067 235.13815804 139.501091 254.45730114 C139.66902613 256.25843451 139.83695673 258.0595683 140.00488281 259.86070251 C140.08793309 260.75147246 140.17098336 261.6422424 140.25655031 262.56000537 C141.32618575 274.03786871 142.3870295 285.51654622 143.44651031 296.99535084 C144.23666189 305.55346044 145.03050563 314.11119458 145.83337402 322.66812134 C146.51936348 329.97984849 147.19743162 337.29225826 147.86557043 344.60563904 C148.2075162 348.34584316 148.55308992 352.0856146 148.90875626 355.82454109 C149.29646553 359.9013198 149.66630632 363.97953306 150.03466797 368.05810547 C150.14877895 369.22814527 150.26288994 370.39818506 150.38045883 371.60368061 C151.73949786 387.09214999 150.98913357 402.2907571 140.64453125 414.73046875 C140.10183594 415.33503906 139.55914062 415.93960937 139 416.5625 C138.42636719 417.23925781 137.85273438 417.91601562 137.26171875 418.61328125 C130.17934536 426.39949299 119.80537368 432.04543319 109.18087256 432.74925303 C105.63890083 432.82670227 102.10186055 432.83855877 98.55903625 432.82992554 C97.18386133 432.83366489 95.80868852 432.83826755 94.43351907 432.84365618 C90.66435171 432.85586662 86.89527325 432.85562803 83.12609065 432.85326743 C79.0570843 432.85285876 74.98810626 432.86390324 70.91911316 432.87338257 C62.95036489 432.8899833 54.98164621 432.89549171 47.01288209 432.89660732 C40.53336088 432.89755833 34.05384941 432.90167126 27.57433128 432.90800858 C9.19373684 432.92561921 -9.18683426 432.93484784 -27.56743719 432.93334763 C-29.05325622 432.93322776 -29.05325622 432.93322776 -30.5690918 432.93310547 C-31.56085089 432.93302371 -32.55260999 432.93294195 -33.5744224 432.93285771 C-49.64169567 432.93204507 -65.70887514 432.95117747 -81.77612128 432.9793822 C-98.28362867 433.0081305 -114.79109033 433.02192139 -131.29862338 433.02019465 C-140.56237519 433.01953137 -149.82602869 433.02499617 -159.08975792 433.04655075 C-166.97831095 433.06478826 -174.8667211 433.06908889 -182.75528612 433.0555319 C-186.77707562 433.04901492 -190.79859124 433.04883878 -194.82035446 433.0662384 C-198.50876302 433.08203108 -202.19668194 433.07904312 -205.885079 433.06167014 C-207.83734699 433.05717606 -209.78963055 433.07220892 -211.74183863 433.08814943 C-226.2482496 432.97536779 -237.11763397 428.17939319 -247.6875 418.4375 C-257.71242539 408.07957884 -261.14314478 394.5954924 -261 380.5625 C-260.60939824 371.96108004 -259.75366686 363.3884336 -258.94726598 354.81812918 C-258.62305346 351.34446617 -258.31255589 347.86957199 -258.0002594 344.39482117 C-257.38815886 337.60805098 -256.76368451 330.82247527 -256.13492128 324.03723077 C-255.40192289 316.1217941 -254.68155543 308.20522271 -253.96168033 300.2885836 C-252.67629115 286.15740901 -251.37981467 272.02727403 -250.0769043 257.89770508 C-248.81486504 244.21123679 -247.56028287 230.5241129 -246.31420898 216.83618164 C-246.23741518 215.9926266 -246.16062138 215.14907155 -246.08150049 214.27995423 C-246.00483644 213.43780414 -245.92817238 212.59565404 -245.84918517 211.72798425 C-245.69479697 210.03205675 -245.54040594 208.33612951 -245.38601208 206.64020252 C-245.30985702 205.80367092 -245.23370196 204.96713932 -245.15523918 204.10525827 C-243.96409512 191.02439488 -242.76620657 177.94414806 -241.5676057 164.86396614 C-241.13450314 160.13668912 -240.7023731 155.40932438 -240.27095457 150.68189339 C-239.58661536 143.18331538 -238.89934055 135.68501918 -238.20610138 128.18725828 C-237.88975019 124.76518828 -237.57474312 121.34301028 -237.26362991 117.92045975 C-236.9246875 114.20066938 -236.58018976 110.48143309 -236.23429871 106.76228333 C-236.13827761 105.69465801 -236.04225652 104.62703269 -235.9433257 103.52705508 C-234.32023768 86.28612806 -231.04949439 71.56626839 -218.04296875 59.19140625 C-206.85896648 50.27414249 -195.49821591 48.1047337 -181.55859375 48.26953125 C-180.18140631 48.27513814 -178.80421282 48.27940306 -177.42701721 48.28239441 C-173.83156323 48.2937574 -170.23648251 48.32314875 -166.64117432 48.35650635 C-162.96070401 48.38739355 -159.2801724 48.40093927 -155.59960938 48.41601562 C-148.39957085 48.4480285 -141.19983806 48.4991187 -134 48.5625 C-133.93918747 47.88553574 -133.87837494 47.20857147 -133.8157196 46.51109314 C-133.7317543 45.61789871 -133.647789 44.72470428 -133.5612793 43.80444336 C-133.47984177 42.9212291 -133.39840424 42.03801483 -133.3144989 41.1280365 C-131.38665412 25.40157087 -122.6074077 11.00955631 -111 0.5625 C-107.4962013 -2.14071282 -103.90072909 -4.35561877 -100 -6.4375 C-99.17371094 -6.89640625 -98.34742188 -7.3553125 -97.49609375 -7.828125 C-68.39741188 -22.57738054 -26.19113095 -19.25160052 0 0 Z M-92 28.5625 C-97.0243547 34.89616747 -98.61499515 40.61248384 -101 48.5625 C-70.64 48.5625 -40.28 48.5625 -9 48.5625 C-12.23822776 36.68899823 -14.98408931 29.62506717 -25.1796875 23.06640625 C-44.44031366 12.79585075 -75.49845759 12.92788644 -92 28.5625 Z M-197.9375 86.1875 C-202.2674991 93.27295307 -202.46748864 101.81248459 -203.18960571 109.93249512 C-203.3453022 111.60437794 -203.3453022 111.60437794 -203.50414407 113.31003618 C-203.84897072 117.02846748 -204.18547911 120.74760294 -204.52197266 124.46679688 C-204.76809137 127.14006005 -205.01466189 129.81327814 -205.26176453 132.4864502 C-205.861416 138.98559815 -206.45472152 145.48531024 -207.0456493 151.98525661 C-207.52659206 157.27445321 -208.00969042 162.56344875 -208.49430466 167.85231018 C-208.56341771 168.60663146 -208.63253076 169.36095274 -208.70373815 170.13813224 C-208.84417732 171.67087926 -208.98461926 173.20362602 -209.12506394 174.73637253 C-210.44084842 189.0994691 -211.7491897 203.46323641 -213.05516569 217.82722765 C-214.24727336 230.93642778 -215.44820011 244.04480199 -216.65340622 257.15280384 C-217.8933437 270.6393327 -219.12754348 284.12637523 -220.35551679 297.61399889 C-221.04400941 305.17514799 -221.7346552 312.73608453 -222.43123245 320.29649353 C-223.02453948 326.73683395 -223.61232458 333.17765057 -224.19327118 339.61911815 C-224.48918083 342.89853872 -224.78827867 346.17760982 -225.0925312 349.45626831 C-226.63982006 365.88840006 -226.63982006 365.88840006 -227.39144897 382.37121582 C-227.41743353 383.63633247 -227.44341808 384.90144913 -227.47019005 386.20490265 C-226.71991729 391.5625529 -224.23986863 394.58643321 -220.0625 397.875 C-215.56259333 400.35454041 -211.58679436 400.68724075 -206.5060463 400.69392776 C-205.40785513 400.69776891 -204.30966397 400.70161005 -203.17819428 400.7055676 C-201.9771398 400.70470112 -200.77608532 400.70383463 -199.53863525 400.70294189 C-198.25847778 400.70591302 -196.97832031 400.70888414 -195.65937018 400.7119453 C-192.10794425 400.72000332 -188.55653854 400.7218042 -185.00510454 400.72254276 C-181.17403148 400.72439539 -177.34296887 400.73194375 -173.51190186 400.73867798 C-165.13582916 400.75225303 -156.75976126 400.75828465 -148.38367939 400.76268864 C-143.15275534 400.7654523 -137.92183314 400.76968987 -132.69091034 400.77419281 C-118.20530946 400.7863841 -103.71971006 400.79668388 -89.23410416 400.8000679 C-87.84376875 400.80039725 -87.84376875 400.80039725 -86.42534576 400.80073325 C-85.03170471 400.80106067 -85.03170471 400.80106067 -83.6099093 400.8013947 C-81.72724422 400.80183817 -79.84457914 400.80228473 -77.96191406 400.80273438 C-76.56111696 400.80306652 -76.56111696 400.80306652 -75.13202092 400.80340537 C-60.0002582 400.80735335 -44.86854363 400.824808 -29.73679951 400.8480939 C-14.19779532 400.87181334 1.34118471 400.88427001 16.8802073 400.88543582 C25.60341023 400.88635221 34.32655039 400.89209564 43.04973602 400.91025543 C50.47763643 400.92566437 57.90545468 400.93077218 65.33336803 400.92251733 C69.12182817 400.91861371 72.91012289 400.91952626 76.69856262 400.93357468 C80.80939447 400.94867895 84.91985444 400.94043867 89.03070068 400.92999268 C90.22283228 400.93804908 91.41496387 400.94610548 92.64322066 400.95440602 C103.3580243 400.92443389 103.3580243 400.92443389 112.61730742 396.11056638 C119.54152414 388.04520837 117.33566681 376.66008981 116.60240555 366.65049744 C116.03869902 359.63608794 115.38703407 352.62986326 114.73681641 345.62304688 C114.49311763 342.93572474 114.25002106 340.24835419 114.00764465 337.56091309 C113.41984217 331.05914743 112.82388009 324.55815543 112.22493459 318.0574078 C111.52652608 310.4742839 110.83590896 302.89045621 110.14544146 295.30660588 C108.91301386 281.77346805 107.67290682 268.24104484 106.42871094 254.70898438 C105.22319516 241.59760403 104.0242304 228.48564483 102.83203125 215.37304688 C101.53061148 201.05925299 100.22548146 186.74580636 98.91400087 172.43293047 C98.77409989 170.90605725 98.63420114 169.37918382 98.49430466 167.85231018 C98.42548332 167.10122517 98.35666199 166.35014015 98.28575516 165.57629499 C97.80226132 160.29709499 97.32133378 155.01766483 96.84135818 149.73814392 C96.25645767 143.30558768 95.6672889 136.87343881 95.07275797 130.44176525 C94.76985669 127.16390642 94.46941214 123.8858563 94.17279625 120.60742188 C93.85047573 117.04859026 93.52094968 113.49049631 93.18960571 109.93249512 C93.09815769 108.90418689 93.00670966 107.87587867 92.91249049 106.81640959 C91.96970433 93.90728884 91.96970433 93.90728884 85 83.5625 C78.5126574 80.44302855 72.11265205 80.13354188 65.03173828 80.18154907 C63.96050783 80.1768691 62.88927738 80.17218913 61.7855854 80.16736734 C58.21369999 80.15544837 54.64220043 80.16486273 51.0703125 80.17431641 C48.50233741 80.17024935 45.93436407 80.16490671 43.36639404 80.15838623 C37.12611869 80.14507747 30.88595185 80.14791383 24.64567232 80.15662415 C19.5720611 80.16341158 14.49848019 80.16431285 9.42486572 80.1610527 C8.70153899 80.160593 7.97821226 80.16013331 7.23296654 80.15965968 C5.76333792 80.15870046 4.29370931 80.15772782 2.82408071 80.1567419 C-10.94224851 80.14819638 -24.7085177 80.15800897 -38.47483706 80.174143 C-50.27557247 80.18754543 -62.07621932 80.1852171 -73.87695312 80.17138672 C-87.59551767 80.15531608 -101.31402967 80.14902028 -115.03260231 80.15822351 C-116.49669011 80.15917911 -117.96077791 80.16012223 -119.42486572 80.1610527 C-120.14514131 80.16151553 -120.86541691 80.16197836 -121.60751903 80.16245521 C-126.67242059 80.16504065 -131.73728869 80.16068374 -136.80218506 80.15361404 C-143.6246831 80.14429997 -150.44701146 80.15097346 -157.2694931 80.16829681 C-159.7716316 80.17225961 -162.27378418 80.17113119 -164.77591705 80.16450882 C-168.19471315 80.15629538 -171.61297603 80.16661325 -175.03173828 80.18154907 C-176.51234899 80.17151082 -176.51234899 80.17151082 -178.02287102 80.16126978 C-185.51944774 80.22467124 -192.20501371 81.06485268 -197.9375 86.1875 Z " fill="#000000" transform="translate(311,47.4375)"/>
<path d="M0 0 C1.64693848 0.01244751 1.64693848 0.01244751 3.32714844 0.02514648 C19.12244984 0.3533393 33.98900927 5.40749446 45.6875 16.4375 C49.25690271 14.76488134 52.4929763 12.68219586 55.8125 10.5625 C72.44696801 0.16566492 92.04716513 -2.72897595 111.3125 1.5 C129.75594003 7.36836728 143.89629309 19.17831031 152.9375 36.3125 C157.72452045 45.75207404 159.22761693 55.13689841 159.125 65.625 C159.11364014 67.26637939 159.11364014 67.26637939 159.10205078 68.94091797 C158.91888014 78.01254446 157.66183207 85.85733957 154.6875 94.4375 C154.26339844 95.67242187 153.83929688 96.90734375 153.40234375 98.1796875 C146.11863364 118.21249162 133.69879939 135.48359453 119.12109375 150.8515625 C117.14151351 152.9550651 115.27947223 155.09088463 113.4375 157.3125 C105.42537607 166.53799846 95.86952415 174.70198292 86.34375 182.30859375 C83.51834453 184.57307314 80.76139751 186.9080083 78 189.25 C73.1760649 193.2720506 68.25451544 197.14256618 63.25 200.9375 C62.57557861 201.45417236 61.90115723 201.97084473 61.20629883 202.50317383 C55.64696045 206.67632729 51.06895153 209.02890005 43.9921875 208.796875 C39.77989758 208.14004335 37.01867834 205.99695536 33.6875 203.4375 C32.12515625 202.25220703 32.12515625 202.25220703 30.53125 201.04296875 C23.55285255 195.67852217 16.79274082 190.06635342 10.11328125 184.3359375 C8.19781918 182.69356101 6.26006764 181.09766479 4.28466797 179.52709961 C-3.2229012 173.53362226 -10.05297409 167.05619624 -16.8125 160.25 C-17.36253693 159.69814026 -17.91257385 159.14628052 -18.47927856 158.57769775 C-26.39098461 150.62179706 -33.89335861 142.67924257 -40.3125 133.4375 C-40.72951172 132.85419922 -41.14652344 132.27089844 -41.57617188 131.66992188 C-58.41290723 108.07847842 -69.65868514 80.43126079 -64.90966797 50.93554688 C-61.89520843 37.48508063 -54.86500968 27.17086614 -45.3125 17.4375 C-44.69761719 16.798125 -44.08273438 16.15875 -43.44921875 15.5 C-31.75967409 4.28604709 -15.82050879 -0.15488781 0 0 Z M-24.3125 43.4375 C-32.25144871 53.19155023 -33.5521861 63.23318604 -32.3125 75.4375 C-27.26582843 105.21008172 -1.36766937 131.68689304 20.6875 150.4375 C21.77402938 151.37561701 22.85991058 152.314485 23.9453125 153.25390625 C26.94668909 155.84874804 29.96482045 158.42308069 32.99072266 160.98925781 C34.55075299 162.32078299 36.09456691 163.67124608 37.63671875 165.0234375 C38.49910156 165.75820313 39.36148438 166.49296875 40.25 167.25 C41.36568359 168.21873047 41.36568359 168.21873047 42.50390625 169.20703125 C44.61745892 170.63138134 44.61745892 170.63138134 47.08203125 170.44921875 C50.57439211 169.09311461 53.06493459 166.90790961 55.8125 164.4375 C56.96271657 163.43134765 58.11377218 162.42615374 59.265625 161.421875 C59.83861328 160.91849609 60.41160156 160.41511719 61.00195312 159.89648438 C63.46932395 157.76076478 66.01589051 155.72760152 68.5625 153.6875 C72.27722238 150.66626414 75.71103931 147.53925166 79.03125 144.09375 C80.73683908 142.38816092 82.52489651 140.85930784 84.375 139.3125 C105.94386489 120.62226505 125.45360918 93.90385536 128 64.875 C127.06164623 54.55310856 122.89706328 47.28300435 115.5 40.1875 C107.99090581 34.18678281 99.4694565 32.74587848 90.05078125 33.0546875 C81.85214516 33.98786559 74.58874596 37.67615427 68.6875 43.4375 C65.676112 47.32023869 63.22963945 51.47972031 60.8125 55.75 C57.18251458 60.34086392 52.91230795 62.11967029 47.1875 62.9375 C42.5763095 62.2787585 39.29056693 61.49317791 35.6875 58.4375 C33.90756458 55.83469761 32.31574951 53.1770775 30.75146484 50.44091797 C25.98171781 42.24673717 19.79483836 36.92394969 10.71484375 34.05859375 C-2.83968587 31.27772896 -14.39739936 33.76468565 -24.3125 43.4375 Z " fill="#000000" transform="translate(209.3125,199.5625)"/>
</svg>
