<?xml version="1.0" encoding="UTF-8"?>
<svg version="1.1" xmlns="http://www.w3.org/2000/svg" width="512" height="512">
<path d="M0 0 C28.35154507 15.94974182 45.26164767 52.18852473 56.8125 81.1875 C58.31238961 81.2151619 59.81243869 81.2341861 61.3125 81.25 C62.1478125 81.26160156 62.983125 81.27320312 63.84375 81.28515625 C66.89755019 81.23859308 66.89755019 81.23859308 70.23046875 80.69921875 C99.35293006 76.855767 128.24665094 82.12378847 155.18359375 93.20703125 C163.80828757 96.4236704 173.0371701 96.33659163 181.453125 92.59765625 C185.58562399 90.1277355 188.63748847 86.7584714 191.8125 83.1875 C193.49085432 81.41886745 194.62608065 80.28070967 196.8125 79.1875 C201.03922392 79.14670151 204.69873137 79.49139461 208.3125 81.75 C210.46548133 85.24859466 211.18261095 88.14932519 210.8125 92.1875 C206.19898567 108.31173257 194.84878699 122.82825416 182.8125 134.1875 C185.71968226 137.20336197 188.78384628 139.83331219 192.0625 142.4375 C196.97151149 146.41707198 201.43999564 150.63364754 205.8125 155.1875 C206.6375 156.0125 207.4625 156.8375 208.3125 157.6875 C209.1375 158.5125 209.9625 159.3375 210.8125 160.1875 C211.616875 160.92226563 211.616875 160.92226563 212.4375 161.671875 C245.02944512 192.36262332 265.63688704 242.40278547 267.06668091 286.70516968 C268.50527098 341.56561491 252.53024582 392.13403676 214.8828125 432.9296875 C213.02821134 434.95225254 211.26214839 437.02233984 209.5 439.125 C178.34730242 474.60643232 130.96649304 496.15050113 85.5 505.4375 C84.76128662 505.58864258 84.02257324 505.73978516 83.26147461 505.89550781 C80.78408418 506.37189803 78.30383778 506.79002786 75.8125 507.1875 C74.69673584 507.36555176 73.58097168 507.54360352 72.43139648 507.72705078 C60.79277732 509.38748488 49.24353747 509.5862437 37.5 509.5625 C35.97956085 509.56168427 35.97956085 509.56168427 34.42840576 509.56085205 C18.23128779 509.52097417 2.68741635 508.65497801 -13.1875 505.1875 C-14.21375488 504.96787598 -15.24000977 504.74825195 -16.29736328 504.52197266 C-56.62150665 495.67308081 -93.30402339 477.58488018 -124.1875 450.1875 C-125.021604 449.44814209 -125.021604 449.44814209 -125.87255859 448.69384766 C-158.91443898 419.21688751 -180.47995962 381.26566892 -190.1875 338.1875 C-190.36829102 337.41374023 -190.54908203 336.63998047 -190.73535156 335.84277344 C-196.04967223 312.10265708 -195.69244453 282.84533479 -190.1875 259.1875 C-189.93009033 258.03193604 -189.93009033 258.03193604 -189.66748047 256.85302734 C-185.54063804 238.69713344 -179.02530081 221.5564951 -170.1875 205.1875 C-169.86668457 204.58599121 -169.54586914 203.98448242 -169.21533203 203.36474609 C-157.36770976 181.3001291 -141.04601313 163.72811661 -123.29785156 146.265625 C-120.91476467 143.91892953 -118.547583 141.55729528 -116.1875 139.1875 C-117.13109375 138.11435547 -117.13109375 138.11435547 -118.09375 137.01953125 C-129.07406462 124.23672523 -143.66175985 105.04888655 -143.546875 87.4140625 C-142.97173941 83.8507224 -140.9658015 82.30430114 -138.1875 80.1875 C-135.03838521 78.61294261 -132.66741184 78.83950882 -129.1875 79.1875 C-125.59361499 81.63134181 -123.47483462 83.81698956 -120.8125 87.25 C-116.46152055 92.11895319 -110.7484888 94.70933182 -104.25 95.390625 C-94.23767282 95.61817789 -85.33829432 92.2907698 -76.125 88.75 C-56.3997633 81.21915678 -37.09470327 80.00320536 -16.1875 80.1875 C-17.85094792 77.28980685 -19.51856207 74.39453439 -21.1875 71.5 C-21.68644775 70.63310547 -22.18539551 69.76621094 -22.69946289 68.87304688 C-25.57209431 63.90407136 -28.53249678 59.02209387 -31.625 54.1875 C-38.78885785 42.66367128 -42.12998582 29.97059057 -39.69140625 16.43359375 C-37.63823836 8.83571258 -34.69631393 3.33690777 -27.8125 -0.75 C-18.57158416 -4.84945673 -9.07049147 -4.15939664 0 0 Z M-17.1875 18.1875 C-19.56579992 21.90359363 -19.60158254 24.83963328 -19.1875 29.1875 C-16.79048016 37.82735708 -12.49686199 45.11537977 -7.8125 52.6875 C2.98511519 70.5032546 12.76402323 88.78073338 20.93371582 107.95953369 C21.47111048 109.22056678 22.01370877 110.47939702 22.56188965 111.73577881 C27.79370019 123.80621432 27.79370019 123.80621432 25.8125 131.1875 C24.75 133.125 24.75 133.125 22.8125 134.1875 C16.07665539 135.70849717 16.07665539 135.70849717 12.30078125 134.15234375 C9.04136455 131.57858143 7.58308157 128.56040237 5.875 124.875 C5.53218994 124.17238037 5.18937988 123.46976074 4.83618164 122.74584961 C3.14496375 119.23210687 1.59156295 115.70185435 0.2109375 112.0546875 C-0.03793213 111.41313721 -0.28680176 110.77158691 -0.54321289 110.1105957 C-1.21368828 108.34558951 -1.8443757 106.56561902 -2.47265625 104.78515625 C-3.97178374 101.90581202 -3.97178374 101.90581202 -7.13671875 101.32421875 C-8.48542515 101.24502833 -9.83657474 101.20426386 -11.1875 101.1875 C-12.04674072 101.15213135 -12.90598145 101.1167627 -13.79125977 101.08032227 C-35.77595872 100.34805795 -54.6136614 103.24322701 -75.13867188 110.91699219 C-85.5143362 114.78762243 -95.19325414 116.34372626 -106.1875 117.1875 C-94.66274212 133.44036367 -78.01908375 144.89018404 -58.25 148.68359375 C-45.59150096 150.48876703 -33.09256563 149.51440358 -20.66015625 146.87109375 C-16.1562109 145.98449033 -11.7392678 145.32885009 -7.1875 146.1875 C-4.61112529 148.07265223 -3.59082572 149.38084857 -2.1875 152.1875 C-1.33223029 158.17438798 -3.90635931 161.48360177 -7.1875 166.1875 C-9.22050802 168.81176019 -11.35508621 171.3419409 -13.5 173.875 C-28.03214727 190.93133563 -28.03214727 190.93133563 -35.1875 211.1875 C-15.90294272 205.04291067 9.48072971 196.37817231 21.8125 179.1875 C22.97360677 176.34532956 23.90303593 173.48350913 24.83203125 170.55859375 C25.8125 168.1875 25.8125 168.1875 28.625 165.9375 C32.52461878 165.01994264 34.96253523 165.0467697 38.8125 166.1875 C41.9654338 168.99010782 43.01402375 171.68003645 44.125 175.625 C46.25571513 182.30418474 50.18318105 184.74335495 56.18359375 188.0390625 C63.94095716 191.99572292 71.10640043 194.2785613 79.8125 195.1875 C82.37576544 195.51489527 84.93824591 195.8484818 87.5 196.1875 C89.37945312 196.43113281 89.37945312 196.43113281 91.296875 196.6796875 C95.54307638 197.2930277 99.64795639 198.16462964 103.8125 199.1875 C100.03788964 185.50453745 92.5819214 175.26071683 82.8125 165.1875 C80.98678504 163.14932511 79.19276975 161.09035809 77.41796875 159.0078125 C75.8344442 157.16238729 75.8344442 157.16238729 74.05078125 155.4921875 C70.62399026 152.05740865 69.43216074 149.86761366 69.375 144.9375 C69.52342251 142.0410122 69.8873332 139.9630004 70.8125 137.1875 C77.42850255 134.66675761 82.41163529 135.45333523 89.1875 137 C112.93766979 142.15628686 136.55381006 141.27933125 157.55078125 127.83984375 C161.55461811 124.91476087 165.32629549 121.71580843 168.8125 118.1875 C168.8125 117.8575 168.8125 117.5275 168.8125 117.1875 C167.80316406 117.07535156 166.79382813 116.96320313 165.75390625 116.84765625 C154.84297583 115.42784635 145.09615636 112.33344421 134.81298828 108.46508789 C127.20234111 105.62150428 119.87484341 103.37720021 111.8125 102.1875 C110.64847656 102.00445312 109.48445312 101.82140625 108.28515625 101.6328125 C102.31693725 100.91007911 96.31474977 101.04290615 90.3125 101.0625 C89.12785156 101.05863281 87.94320312 101.05476563 86.72265625 101.05078125 C79.69150006 101.03711996 79.69150006 101.03711996 72.69921875 101.671875 C67.50137531 102.36143815 62.36320147 102.48876972 57.125 102.5625 C55.59649414 102.61857422 55.59649414 102.61857422 54.03710938 102.67578125 C53.05162109 102.68738281 52.06613281 102.69898437 51.05078125 102.7109375 C49.721073 102.7406665 49.721073 102.7406665 48.36450195 102.77099609 C44.64716761 101.92105549 43.21405787 100.09387717 40.8125 97.1875 C39.21020508 94.2434082 39.21020508 94.2434082 37.83203125 90.98828125 C37.31286133 89.78751953 36.79369141 88.58675781 36.25878906 87.34960938 C35.99231567 86.72078857 35.72584229 86.09196777 35.45129395 85.4440918 C34.05257826 82.15321487 32.60840856 78.88260279 31.16015625 75.61328125 C30.87433685 74.96779327 30.58851746 74.3223053 30.29403687 73.65725708 C22.07422963 55.24563069 8.31936436 26.69340016 -11.1875 18.1875 C-14.56868319 17.67868869 -14.56868319 17.67868869 -17.1875 18.1875 Z M157.0625 150.9375 C141.33306421 158.26637997 124.97386253 160.08778368 107.8125 161.1875 C110.15712425 165.49761776 112.49404088 169.75014468 115.25 173.8125 C123.97594889 187.75206615 129.52776202 207.71263143 128.8125 224.1875 C127.90005732 226.99686298 127.15806793 228.80205885 125.1875 231 C121.65991069 232.76379466 118.59284246 233.15504652 114.8125 232.1875 C112.6126515 230.67754482 110.79229632 228.98285942 108.87109375 227.1328125 C99.87563087 218.63235612 90.46744749 216.34935028 78.5 215.25 C67.18188725 214.18566947 57.57775762 211.23531909 47.375 206.25 C46.71218018 205.92628418 46.04936035 205.60256836 45.36645508 205.26904297 C41.00216865 203.03846918 37.47666331 200.4439048 33.8125 197.1875 C32.966875 197.97125 32.12125 198.755 31.25 199.5625 C18.42760951 210.47955536 3.48785318 218.28222726 -12.125 224.375 C-23.52888414 228.83012327 -31.97453186 234.40453479 -40.31640625 243.51171875 C-45.8907258 249.58783615 -45.8907258 249.58783615 -50.375 250.25 C-56.86554878 250.14359756 -56.86554878 250.14359756 -59.1875 249.1875 C-65.3245102 236.9134796 -59.60070063 218.74728295 -55.625 206.3125 C-51.29566985 193.44144233 -44.48228604 181.58741769 -37.1875 170.1875 C-38.30125 170.15011719 -39.415 170.11273438 -40.5625 170.07421875 C-59.74055209 169.30565694 -79.12200444 166.65414687 -95.07421875 155.09375 C-97.189414 153.94504282 -97.189414 153.94504282 -99.58984375 154.70703125 C-102.81475876 156.54499033 -105.39863472 158.8246224 -108.0625 161.375 C-108.6205835 161.90254883 -109.17866699 162.43009766 -109.75366211 162.97363281 C-110.95129304 164.11215213 -112.14477584 165.25504791 -113.33447266 166.40185547 C-114.57125943 167.59366818 -115.8131558 168.78020079 -117.06005859 169.96142578 C-149.83812241 201.06203893 -171.18431956 244.44701735 -172.56640625 289.9375 C-172.95452312 306.6723225 -172.45474153 322.91092881 -168.1875 339.1875 C-167.86604004 340.45303711 -167.86604004 340.45303711 -167.53808594 341.74414062 C-154.21167489 393.07119105 -118.47947298 434.06060456 -73.40698242 460.6796875 C-52.82281854 472.51934541 -29.47539784 480.69626256 -6.1875 485.1875 C-5.46304688 485.33703125 -4.73859375 485.4865625 -3.9921875 485.640625 C24.01836793 491.22348484 56.00252465 490.38321684 83.8125 484.1875 C84.6669873 484.00026367 85.52147461 483.81302734 86.40185547 483.62011719 C115.48795663 477.04294376 145.37097084 464.87893346 168.8125 446.1875 C169.64652344 445.54296875 170.48054688 444.8984375 171.33984375 444.234375 C192.26736518 427.85351076 209.4711417 409.1669987 222.8125 386.1875 C223.20711426 385.50816406 223.60172852 384.82882812 224.00830078 384.12890625 C238.86307806 358.1836246 246.27021532 329.39492992 246.125 299.5625 C246.12284485 298.76625214 246.1206897 297.97000427 246.11846924 297.14962769 C246.06686734 285.26881182 245.67957699 273.77172752 242.8125 262.1875 C242.51448486 260.95169189 242.51448486 260.95169189 242.21044922 259.69091797 C231.18315773 215.16048468 203.5928341 173.41450305 164.8125 148.1875 C161.81879237 148.1875 159.73870678 149.61897861 157.0625 150.9375 Z " fill="#000000" transform="translate(219.1875,2.8125)"/>
<path d="M0 0 C3.43642243 2.76407891 5.27539634 4.68165495 6 9 C6.09241134 10.80920867 6.18142326 12.61879176 6.23901367 14.42944336 C7.47382307 50.27173479 23.23834661 81.8402204 47 108 C47.64066406 108.72445312 48.28132813 109.44890625 48.94140625 110.1953125 C76.19259267 139.33640223 120.58751487 156.90413626 160.02734375 158.296875 C161.67555313 158.34895113 163.32402755 158.39322494 164.97265625 158.4296875 C170.33592494 158.63629817 174.25781726 159.42113258 179 162 C181.08623141 165.12934711 181.36754564 166.24354287 181.5 169.875 C181.5515625 170.71804688 181.603125 171.56109375 181.65625 172.4296875 C180.86483582 175.52939305 179.50617781 177.11686298 176.95361328 179.02734375 C173.04265691 180.97451323 168.96859775 180.68377961 164.6875 180.5625 C163.68348145 180.54590332 162.67946289 180.52930664 161.64501953 180.51220703 C121.80774898 179.32294281 79.72802615 164.74796674 49 139 C47.98421875 138.16726563 46.9684375 137.33453125 45.921875 136.4765625 C16.15785244 111.89402469 -4.80054041 78.85097483 -12.609375 40.88232422 C-12.94570227 39.26164718 -13.3136045 37.64758059 -13.6875 36.03515625 C-15.08640665 29.26405948 -15.29645307 22.45532908 -15.4375 15.5625 C-15.48922363 14.12161011 -15.48922363 14.12161011 -15.54199219 12.65161133 C-15.57007351 7.96161728 -15.55822343 5.739017 -12.66015625 1.90234375 C-8.1718939 -1.30732404 -5.29065319 -1.27705422 0 0 Z " fill="#000000" transform="translate(85,292)"/>
<path d="M0 0 C3.31620379 2.21080253 3.88798279 3.55993237 4.875 7.4375 C5.02529432 11.72088805 4.42188028 14.2716066 1.6953125 17.5859375 C-1.37924666 20.15043155 -5.11466431 20.11608209 -9 20 C-11.98636669 18.79274538 -13.39865744 17.80179008 -15.3125 15.25 C-16.50202252 11.35701719 -16.462582 7.66529519 -15.375 3.75 C-11.14192635 -1.63754828 -6.0601308 -1.46616068 0 0 Z " fill="#000000" transform="translate(303,448)"/>
</svg>
